<svg width="20" height="21" viewBox="0 0 20 21" fill="none" xmlns="http://www.w3.org/2000/svg">
    <path fill-rule="evenodd" clip-rule="evenodd" d="M4.645 3.961c1.184-5.281 9.151-5.281 10.335 0 .018.08.027.162.027.244v.413h2.31a2.309 2.309 0 0 1 2.308 2.308V18.47a2.18 2.18 0 0 1-2.18 2.18H2.18A2.18 2.18 0 0 1 0 18.47H0V6.927h2.309V18.47h15.007V6.926H0A2.309 2.309 0 0 1 2.31 4.618h2.309v-.413c0-.082.009-.164.027-.244zm8.053.357v.3H6.927v-.3c.732-2.845 5.039-2.845 5.771 0z" fill="#fff"  stroke-width="10"/>
</svg>
