<svg width="119" height="36" viewBox="0 0 119 36" fill="none" xmlns="http://www.w3.org/2000/svg">
<g clip-path="url(#clip0_269_31)">
<path d="M15.4271 2.53948V3.96211H9.48552V7.01658H11.9124C12.0239 7.01658 12.2192 7.01658 12.4981 7.01658C12.791 7.01658 13.1188 7.03053 13.4814 7.05843C13.858 7.07237 14.2137 7.10724 14.5484 7.16303C14.8971 7.20487 15.183 7.27461 15.4062 7.37224C15.6293 7.45593 15.7409 7.57448 15.7409 7.7279V12.2887C15.7409 12.4282 15.6154 12.5467 15.3643 12.6443C15.1133 12.742 14.8064 12.8187 14.4438 12.8745C14.0951 12.9163 13.7604 12.9512 13.4396 12.9791C13.1328 12.993 12.9235 13 12.812 13H3.62763V11.5774H9.88302V8.43921H7.45618C7.3446 8.43921 7.14236 8.43921 6.84947 8.43921C6.57052 8.43921 6.24276 8.43224 5.86618 8.41829C5.50355 8.3904 5.14789 8.35553 4.79921 8.31369C4.46447 8.2579 4.18553 8.18119 3.96237 8.08356C3.73921 7.98593 3.62763 7.86737 3.62763 7.7279V3.2508C3.62763 3.09738 3.75316 2.97883 4.00421 2.89514C4.25526 2.79751 4.55513 2.72777 4.90381 2.68593C5.26645 2.63014 5.60118 2.59527 5.90802 2.58133C6.22881 2.55343 6.445 2.53948 6.55658 2.53948H15.4271ZM16.9893 2.53948H22.8472V11.5774H24.5209V2.53948H30.3788V12.2887C30.3788 12.4282 30.2532 12.5467 30.0022 12.6443C29.7511 12.742 29.4443 12.8187 29.0817 12.8745C28.733 12.9163 28.3982 12.9512 28.0775 12.9791C27.7706 12.993 27.5614 13 27.4498 13H19.9182C19.8067 13 19.5905 12.993 19.2697 12.9791C18.9629 12.9512 18.6281 12.9163 18.2655 12.8745C17.9168 12.8187 17.6169 12.742 17.3659 12.6443C17.1148 12.5467 16.9893 12.4282 16.9893 12.2887V2.53948ZM37.496 13H31.6381V3.2508C31.6381 3.09738 31.7636 2.97883 32.0147 2.89514C32.2657 2.79751 32.5656 2.72777 32.9143 2.68593C33.2769 2.63014 33.6117 2.59527 33.9185 2.58133C34.2393 2.55343 34.4555 2.53948 34.5671 2.53948H41.6802C41.7918 2.53948 41.9871 2.54646 42.266 2.5604C42.5589 2.57435 42.8657 2.60922 43.1865 2.66501C43.5213 2.70685 43.8211 2.76961 44.0861 2.8533C44.3511 2.92304 44.5185 3.02067 44.5882 3.14619C44.658 3.02067 44.8184 2.92304 45.0694 2.8533C45.3344 2.76961 45.6203 2.70685 45.9272 2.66501C46.248 2.62317 46.5478 2.59527 46.8268 2.58133C47.1197 2.55343 47.3359 2.53948 47.4753 2.53948H48.7934C48.9049 2.53948 49.1142 2.55343 49.421 2.58133C49.7418 2.59527 50.0765 2.63014 50.4252 2.68593C50.7878 2.72777 51.0947 2.79751 51.3457 2.89514C51.5968 2.97883 51.7223 3.09738 51.7223 3.2508V13H45.8644V3.96211H44.6092V13H38.7513V3.96211H37.496V13ZM58.8256 13H52.9678V3.2508C52.9678 3.09738 53.0933 2.97883 53.3443 2.89514C53.5954 2.79751 53.8953 2.72777 54.2439 2.68593C54.6066 2.63014 54.9413 2.59527 55.2481 2.58133C55.5689 2.55343 55.7851 2.53948 55.8967 2.53948H63.0099C63.1214 2.53948 63.3167 2.54646 63.5956 2.5604C63.8885 2.57435 64.1954 2.60922 64.5162 2.66501C64.8509 2.70685 65.1508 2.76961 65.4158 2.8533C65.6808 2.92304 65.8481 3.02067 65.9179 3.14619C65.9876 3.02067 66.148 2.92304 66.3991 2.8533C66.6641 2.76961 66.95 2.70685 67.2568 2.66501C67.5776 2.62317 67.8775 2.59527 68.1564 2.58133C68.4493 2.55343 68.6655 2.53948 68.805 2.53948H70.123C70.2346 2.53948 70.4438 2.55343 70.7506 2.58133C71.0714 2.59527 71.4062 2.63014 71.7548 2.68593C72.1175 2.72777 72.4243 2.79751 72.6754 2.89514C72.9264 2.97883 73.0519 3.09738 73.0519 3.2508V13H67.1941V3.96211H65.9388V13H60.0809V3.96211H58.8256V13ZM87.4777 11.5774V13H77.2263C77.1148 13 76.8986 12.993 76.5778 12.9791C76.271 12.9512 75.9362 12.9163 75.5736 12.8745C75.2249 12.8187 74.925 12.742 74.674 12.6443C74.4229 12.5467 74.2974 12.4282 74.2974 12.2887V3.2508C74.2974 3.09738 74.4229 2.97883 74.674 2.89514C74.925 2.79751 75.2249 2.72777 75.5736 2.68593C75.9362 2.63014 76.271 2.59527 76.5778 2.58133C76.8986 2.55343 77.1148 2.53948 77.2263 2.53948H84.7579C84.8695 2.53948 85.0787 2.55343 85.3855 2.58133C85.7063 2.59527 86.0411 2.63014 86.3898 2.68593C86.7524 2.72777 87.0592 2.79751 87.3103 2.89514C87.5613 2.97883 87.6869 3.09738 87.6869 3.2508V9.3179C87.6869 9.45737 87.5613 9.57592 87.3103 9.67356C87.0592 9.77119 86.7524 9.8479 86.3898 9.90369C86.0411 9.94553 85.7063 9.9804 85.3855 10.0083C85.0787 10.0222 84.8695 10.0292 84.7579 10.0292H83.0633C82.9238 10.0292 82.7077 10.0222 82.4148 10.0083C82.1219 9.99434 81.815 9.96645 81.4942 9.92461C81.1734 9.86882 80.8875 9.79908 80.6365 9.7154C80.3854 9.63171 80.225 9.52711 80.1553 9.40158V11.5774H87.4777ZM80.1553 8.60658H81.829V3.96211H80.1553V8.60658ZM94.8041 13H88.9462V3.2508C88.9462 3.09738 89.0717 2.97883 89.3228 2.89514C89.5738 2.79751 89.8737 2.72777 90.2224 2.68593C90.585 2.63014 90.9198 2.59527 91.2266 2.58133C91.5474 2.55343 91.7636 2.53948 91.8752 2.53948H98.1724V3.96211H94.8041V13ZM14.0881 22.5395V23.9621H9.48552V31.5774H14.0881V33H6.55658C6.445 33 6.22881 32.993 5.90802 32.9791C5.60118 32.9512 5.26645 32.9163 4.90381 32.8745C4.55513 32.8187 4.25526 32.742 4.00421 32.6443C3.75316 32.5467 3.62763 32.4282 3.62763 32.2887V23.2508C3.62763 23.0974 3.75316 22.9788 4.00421 22.8951C4.25526 22.7975 4.55513 22.7278 4.90381 22.6859C5.26645 22.6301 5.60118 22.5953 5.90802 22.5813C6.22881 22.5534 6.445 22.5395 6.55658 22.5395H14.0881ZM25.7949 33H18.2634C18.1518 33 17.9356 32.993 17.6148 32.9791C17.308 32.9512 16.9732 32.9163 16.6106 32.8745C16.2619 32.8187 15.962 32.742 15.711 32.6443C15.4599 32.5467 15.3344 32.4282 15.3344 32.2887V23.2508C15.3344 23.0974 15.4599 22.9788 15.711 22.8951C15.962 22.7975 16.2619 22.7278 16.6106 22.6859C16.9732 22.6301 17.308 22.5953 17.6148 22.5813C17.9356 22.5534 18.1518 22.5395 18.2634 22.5395H25.7949C25.9065 22.5395 26.1157 22.5534 26.4226 22.5813C26.7434 22.5953 27.0781 22.6301 27.4268 22.6859C27.7894 22.7278 28.0962 22.7975 28.3473 22.8951C28.5984 22.9788 28.7239 23.0974 28.7239 23.2508V32.2887C28.7239 32.4282 28.5984 32.5467 28.3473 32.6443C28.0962 32.742 27.7894 32.8187 27.4268 32.8745C27.0781 32.9163 26.7434 32.9512 26.4226 32.9791C26.1157 32.993 25.9065 33 25.7949 33ZM21.1923 31.5774H22.866V23.9621H21.1923V31.5774ZM35.8411 33H29.9832V18.4599H35.8411V33ZM42.951 33H37.0931V18.4599H42.951V33ZM57.3832 31.5774V33H47.1319C47.0204 33 46.8042 32.993 46.4834 32.9791C46.1765 32.9512 45.8418 32.9163 45.4792 32.8745C45.1305 32.8187 44.8306 32.742 44.5796 32.6443C44.3285 32.5467 44.203 32.4282 44.203 32.2887V23.2508C44.203 23.0974 44.3285 22.9788 44.5796 22.8951C44.8306 22.7975 45.1305 22.7278 45.4792 22.6859C45.8418 22.6301 46.1765 22.5953 46.4834 22.5813C46.8042 22.5534 47.0204 22.5395 47.1319 22.5395H54.6635C54.7751 22.5395 54.9843 22.5534 55.2911 22.5813C55.6119 22.5953 55.9467 22.6301 56.2953 22.6859C56.658 22.7278 56.9648 22.7975 57.2159 22.8951C57.4669 22.9788 57.5925 23.0974 57.5925 23.2508V29.3179C57.5925 29.4574 57.4669 29.5759 57.2159 29.6736C56.9648 29.7712 56.658 29.8479 56.2953 29.9037C55.9467 29.9455 55.6119 29.9804 55.2911 30.0083C54.9843 30.0222 54.7751 30.0292 54.6635 30.0292H52.9689C52.8294 30.0292 52.6132 30.0222 52.3204 30.0083C52.0275 29.9943 51.7206 29.9665 51.3998 29.9246C51.079 29.8688 50.7931 29.7991 50.5421 29.7154C50.291 29.6317 50.1306 29.5271 50.0609 29.4016V31.5774H57.3832ZM50.0609 28.6066H51.7346V23.9621H50.0609V28.6066ZM69.3123 22.5395V23.9621H64.7097V31.5774H69.3123V33H61.7807C61.6692 33 61.453 32.993 61.1322 32.9791C60.8253 32.9512 60.4906 32.9163 60.128 32.8745C59.7793 32.8187 59.4794 32.742 59.2284 32.6443C58.9773 32.5467 58.8518 32.4282 58.8518 32.2887V23.2508C58.8518 23.0974 58.9773 22.9788 59.2284 22.8951C59.4794 22.7975 59.7793 22.7278 60.128 22.6859C60.4906 22.6301 60.8253 22.5953 61.1322 22.5813C61.453 22.5534 61.6692 22.5395 61.7807 22.5395H69.3123ZM70.5586 24.3805V22.9579H72.4415V20.029H77.8809V22.9579H80.3915V24.3805H77.8809V31.5774H80.3915V33H74.952C74.8404 33 74.6242 32.993 74.3034 32.9791C73.9966 32.9512 73.6619 32.9163 73.2992 32.8745C72.9506 32.8187 72.6507 32.742 72.3996 32.6443C72.1486 32.5467 72.0231 32.4282 72.0231 32.2887V25.2801C72.0231 25.1546 72.1137 25.05 72.295 24.9663C72.4903 24.8826 72.7274 24.8199 73.0063 24.778C73.2853 24.7222 73.5642 24.6804 73.8432 24.6525C74.1361 24.6246 74.3871 24.6037 74.5963 24.5897V24.3805H70.5586ZM87.5313 21.4934H81.6734V19.7988C81.6734 19.6454 81.7989 19.5269 82.05 19.4432C82.301 19.3455 82.6009 19.2758 82.9496 19.234C83.3122 19.1782 83.6469 19.1433 83.9538 19.1294C84.2746 19.1015 84.4907 19.0875 84.6023 19.0875H87.5313V21.4934ZM81.6525 22.5395H87.5103V33H81.6525V22.5395ZM99.2433 33H91.7117C91.6001 33 91.3839 32.993 91.0632 32.9791C90.7563 32.9512 90.4216 32.9163 90.059 32.8745C89.7103 32.8187 89.4104 32.742 89.1593 32.6443C88.9083 32.5467 88.7828 32.4282 88.7828 32.2887V23.2508C88.7828 23.0974 88.9083 22.9788 89.1593 22.8951C89.4104 22.7975 89.7103 22.7278 90.059 22.6859C90.4216 22.6301 90.7563 22.5953 91.0632 22.5813C91.3839 22.5534 91.6001 22.5395 91.7117 22.5395H99.2433C99.3549 22.5395 99.5641 22.5534 99.8709 22.5813C100.192 22.5953 100.526 22.6301 100.875 22.6859C101.238 22.7278 101.545 22.7975 101.796 22.8951C102.047 22.9788 102.172 23.0974 102.172 23.2508V32.2887C102.172 32.4282 102.047 32.5467 101.796 32.6443C101.545 32.742 101.238 32.8187 100.875 32.8745C100.526 32.9163 100.192 32.9512 99.8709 32.9791C99.5641 32.993 99.3549 33 99.2433 33ZM94.6407 31.5774H96.3143V23.9621H94.6407V31.5774ZM109.289 33H103.432V22.5395H113.892C114.004 22.5395 114.213 22.5534 114.52 22.5813C114.841 22.5953 115.175 22.6301 115.524 22.6859C115.887 22.7278 116.193 22.7975 116.444 22.8951C116.696 22.9788 116.821 23.0974 116.821 23.2508V33H110.963V23.9621H109.289V33Z" fill="#FEFEFE"/>
</g>
<defs>
<clipPath id="clip0_269_31">
<rect width="119" height="36" fill="white"/>
</clipPath>
</defs>
</svg>
