<svg width="141" height="24" viewBox="0 0 141 24" fill="none" xmlns="http://www.w3.org/2000/svg">
<path d="M14.3399 7.94445V9.57896H7.51345V13.0883H10.3017C10.4299 13.0883 10.6543 13.0883 10.9748 13.0883C11.3113 13.0883 11.6879 13.1044 12.1045 13.1364C12.5372 13.1524 12.9458 13.1925 13.3304 13.2566C13.731 13.3047 14.0595 13.3848 14.3159 13.497C14.5723 13.5931 14.7005 13.7293 14.7005 13.9056V19.1456C14.7005 19.3059 14.5563 19.4421 14.2678 19.5543C13.9794 19.6664 13.6268 19.7546 13.2102 19.8187C12.8096 19.8667 12.425 19.9068 12.0564 19.9389C11.7039 19.9549 11.4635 19.9629 11.3353 19.9629H0.783118V18.3284H7.97015V14.7228H5.18187C5.05367 14.7228 4.82132 14.7228 4.4848 14.7228C4.16431 14.7228 3.78773 14.7148 3.35507 14.6988C2.93843 14.6668 2.5298 14.6267 2.12918 14.5786C1.74459 14.5145 1.4241 14.4264 1.16771 14.3142C0.911315 14.202 0.783118 14.0658 0.783118 13.9056V8.7617C0.783118 8.58543 0.92734 8.44922 1.21578 8.35307C1.50422 8.2409 1.84875 8.16078 2.24937 8.1127C2.66601 8.04861 3.0506 8.00855 3.40314 7.99252C3.7717 7.96047 4.02009 7.94445 4.14828 7.94445H14.3399ZM16.1348 7.94445H22.8651V18.3284H24.7881V7.94445H31.5184V19.1456C31.5184 19.3059 31.3742 19.4421 31.0857 19.5543C30.7973 19.6664 30.4448 19.7546 30.0281 19.8187C29.6275 19.8667 29.2429 19.9068 28.8744 19.9389C28.5218 19.9549 28.2814 19.9629 28.1532 19.9629H19.5C19.3718 19.9629 19.1234 19.9549 18.7548 19.9389C18.4023 19.9068 18.0177 19.8667 17.6011 19.8187C17.2004 19.7546 16.8559 19.6664 16.5675 19.5543C16.279 19.4421 16.1348 19.3059 16.1348 19.1456V7.94445ZM39.6956 19.9629H32.9653V8.7617C32.9653 8.58543 33.1095 8.44922 33.398 8.35307C33.6864 8.2409 34.031 8.16078 34.4316 8.1127C34.8482 8.04861 35.2328 8.00855 35.5853 7.99252C35.9539 7.96047 36.2023 7.94445 36.3305 7.94445H44.503C44.6312 7.94445 44.8556 7.95246 45.1761 7.96848C45.5126 7.98451 45.8651 8.02457 46.2337 8.08867C46.6183 8.13674 46.9628 8.20885 47.2673 8.305C47.5717 8.38512 47.764 8.4973 47.8441 8.64152C47.9243 8.4973 48.1086 8.38512 48.397 8.305C48.7015 8.20885 49.03 8.13674 49.3825 8.08867C49.7511 8.04059 50.0956 8.00855 50.4161 7.99252C50.7526 7.96047 51.001 7.94445 51.1612 7.94445H52.6756C52.8038 7.94445 53.0441 7.96047 53.3967 7.99252C53.7652 8.00855 54.1498 8.04861 54.5504 8.1127C54.9671 8.16078 55.3196 8.2409 55.6081 8.35307C55.8965 8.44922 56.0407 8.58543 56.0407 8.7617V19.9629H49.3104V9.57896H47.8682V19.9629H41.1379V9.57896H39.6956V19.9629ZM64.202 19.9629H57.4717V8.7617C57.4717 8.58543 57.6159 8.44922 57.9043 8.35307C58.1928 8.2409 58.5373 8.16078 58.9379 8.1127C59.3546 8.04861 59.7392 8.00855 60.0917 7.99252C60.4603 7.96047 60.7086 7.94445 60.8368 7.94445H69.0094C69.1376 7.94445 69.3619 7.95246 69.6824 7.96848C70.0189 7.98451 70.3715 8.02457 70.74 8.08867C71.1246 8.13674 71.4692 8.20885 71.7736 8.305C72.0781 8.38512 72.2704 8.4973 72.3505 8.64152C72.4306 8.4973 72.6149 8.38512 72.9034 8.305C73.2078 8.20885 73.5363 8.13674 73.8889 8.08867C74.2574 8.04059 74.602 8.00855 74.9225 7.99252C75.259 7.96047 75.5074 7.94445 75.6676 7.94445H77.1819C77.3101 7.94445 77.5505 7.96047 77.903 7.99252C78.2716 8.00855 78.6562 8.04861 79.0568 8.1127C79.4734 8.16078 79.826 8.2409 80.1144 8.35307C80.4029 8.44922 80.5471 8.58543 80.5471 8.7617V19.9629H73.8168V9.57896H72.3745V19.9629H65.6442V9.57896H64.202V19.9629ZM97.1213 18.3284V19.9629H85.3432C85.215 19.9629 84.9666 19.9549 84.5981 19.9389C84.2455 19.9068 83.8609 19.8667 83.4443 19.8187C83.0437 19.7546 82.6991 19.6664 82.4107 19.5543C82.1223 19.4421 81.978 19.3059 81.978 19.1456V8.7617C81.978 8.58543 82.1223 8.44922 82.4107 8.35307C82.6991 8.2409 83.0437 8.16078 83.4443 8.1127C83.8609 8.04861 84.2455 8.00855 84.5981 7.99252C84.9666 7.96047 85.215 7.94445 85.3432 7.94445H93.9965C94.1247 7.94445 94.365 7.96047 94.7176 7.99252C95.0861 8.00855 95.4707 8.04861 95.8714 8.1127C96.288 8.16078 96.6405 8.2409 96.929 8.35307C97.2174 8.44922 97.3616 8.58543 97.3616 8.7617V15.7324C97.3616 15.8926 97.2174 16.0289 96.929 16.141C96.6405 16.2532 96.288 16.3413 95.8714 16.4054C95.4707 16.4535 95.0861 16.4936 94.7176 16.5256C94.365 16.5416 94.1247 16.5497 93.9965 16.5497H92.0495C91.8892 16.5497 91.6409 16.5416 91.3043 16.5256C90.9678 16.5096 90.6153 16.4775 90.2467 16.4295C89.8782 16.3654 89.5497 16.2852 89.2612 16.1891C88.9728 16.093 88.7885 15.9728 88.7084 15.8285V18.3284H97.1213ZM88.7084 14.9151H90.6313V9.57896H88.7084V14.9151ZM105.539 19.9629H98.8085V8.7617C98.8085 8.58543 98.9528 8.44922 99.2412 8.35307C99.5297 8.2409 99.8742 8.16078 100.275 8.1127C100.691 8.04861 101.076 8.00855 101.429 7.99252C101.797 7.96047 102.046 7.94445 102.174 7.94445H109.409V9.57896H105.539V19.9629Z" fill="#FEFEFE"/>
<path d="M113.342 22.1958C112.645 22.1958 112.15 22.0285 111.857 21.6938C111.578 21.3731 111.439 21.0384 111.439 20.6898C111.439 20.383 111.508 20.0972 111.648 19.8322C111.801 19.5533 112.066 19.3302 112.443 19.1629C112.819 18.9955 113.356 18.9258 114.053 18.9537C114.75 18.5911 115.455 18.1449 116.166 17.615C116.891 17.0851 117.581 16.4995 118.236 15.858C118.906 15.2166 119.498 14.5612 120.014 13.8918C120.544 13.2085 120.956 12.5392 121.249 11.8838C121.555 11.2145 121.709 10.587 121.709 10.0013C121.709 9.37378 121.513 8.89966 121.123 8.57894C120.747 8.25821 120.217 8.09785 119.533 8.09785C118.948 8.09785 118.411 8.16757 117.923 8.30702C117.435 8.43252 117.002 8.58591 116.626 8.76719C116.249 8.94847 115.929 9.10883 115.664 9.24828C115.413 9.37378 115.211 9.43653 115.057 9.43653C114.792 9.43653 114.555 9.32497 114.346 9.10186C114.137 8.8648 114.074 8.55802 114.158 8.18152C114.213 7.93052 114.381 7.63071 114.66 7.28209C114.939 6.93348 115.322 6.58486 115.81 6.23625C116.298 5.88764 116.877 5.60177 117.546 5.37866C118.23 5.1416 118.996 5.02307 119.847 5.02307C121.214 5.02307 122.322 5.44141 123.173 6.27808C124.037 7.11476 124.47 8.39069 124.47 10.1059C124.47 11.2354 124.17 12.344 123.57 13.4316C122.985 14.5193 122.204 15.5512 121.228 16.5273C120.251 17.5035 119.185 18.3959 118.027 19.2047C119.073 19.1629 119.889 19.1001 120.475 19.0164C121.06 18.9188 121.527 18.8352 121.876 18.7654C122.239 18.6957 122.587 18.6609 122.922 18.6609C123.396 18.6609 123.766 18.7585 124.03 18.9537C124.295 19.1489 124.428 19.4278 124.428 19.7904C124.428 20.0553 124.358 20.3133 124.219 20.5643C124.093 20.8153 123.842 21.0454 123.466 21.2546C123.089 21.4498 122.545 21.6032 121.834 21.7147C121.123 21.8402 120.189 21.903 119.031 21.903C118.348 21.903 117.644 21.896 116.919 21.8821C116.208 21.8681 115.517 21.8472 114.848 21.8193C114.458 21.9588 114.151 22.0564 113.928 22.1121C113.718 22.1679 113.523 22.1958 113.342 22.1958ZM127.625 22.9279C127.095 22.9279 126.621 22.7815 126.203 22.4886C125.799 22.2098 125.596 21.7914 125.596 21.2336C125.596 20.7177 125.75 20.3482 126.057 20.125C126.363 19.888 126.775 19.7695 127.291 19.7695C127.5 19.7695 127.709 19.7973 127.918 19.8531C128.127 19.895 128.518 19.9507 129.09 20.0205C130.052 19.5324 130.902 19.0583 131.641 18.5981C132.38 18.124 132.959 17.6569 133.378 17.1967C133.796 16.7226 134.005 16.2415 134.005 15.7534C134.005 15.2932 133.824 15.0213 133.461 14.9377C133.113 14.8401 132.687 14.7843 132.185 14.7703C132.129 14.7703 132.067 14.7703 131.997 14.7703C131.941 14.7564 131.878 14.7494 131.809 14.7494C131.098 14.7076 130.428 14.6239 129.801 14.4984C129.187 14.359 128.685 14.1149 128.295 13.7663C127.904 13.4038 127.709 12.8669 127.709 12.1557C127.709 11.3609 127.814 10.58 128.023 9.81303C128.232 9.03214 128.497 8.31399 128.818 7.6586C128.692 7.54704 128.615 7.41457 128.588 7.26118C128.574 7.09384 128.567 6.92651 128.567 6.75917C128.567 6.59184 128.692 6.4245 128.943 6.25717C129.194 6.08983 129.536 5.9225 129.968 5.75516C130.331 5.2671 130.679 4.88363 131.014 4.60474C131.349 4.3119 131.614 4.16548 131.809 4.16548C132.046 4.16548 132.255 4.24218 132.436 4.39557C132.631 4.54896 132.778 4.74418 132.876 4.98124C133.712 4.8139 134.584 4.68143 135.49 4.58382C136.41 4.48621 137.303 4.4374 138.167 4.4374C138.669 4.4374 139.123 4.47923 139.527 4.5629C139.945 4.63263 140.273 4.77904 140.51 5.00216C140.761 5.21132 140.887 5.53902 140.887 5.98525C140.887 6.36175 140.761 6.64064 140.51 6.82192C140.273 6.98926 139.952 7.0799 139.548 7.09384C138.739 7.10779 137.875 7.17054 136.954 7.28209C136.034 7.39365 135.128 7.51915 134.235 7.6586C133.357 7.7841 132.569 7.88171 131.872 7.95143C131.648 8.35583 131.432 8.77416 131.223 9.20644C131.028 9.62478 130.861 10.0152 130.721 10.3778C130.596 10.7403 130.533 11.0332 130.533 11.2563C130.533 11.6467 130.7 11.8838 131.035 11.9675C131.37 12.0511 131.767 12.1069 132.227 12.1348C132.771 12.1766 133.315 12.2464 133.859 12.344C134.402 12.4276 134.897 12.581 135.344 12.8041C135.804 13.0273 136.173 13.3619 136.452 13.8082C136.731 14.2404 136.871 14.8191 136.871 15.5443C136.871 16.2275 136.675 16.9178 136.285 17.615C135.908 18.3122 135.393 18.9816 134.737 19.623C134.096 20.2505 133.371 20.8083 132.562 21.2964C131.767 21.7984 130.937 22.1958 130.073 22.4886C129.222 22.7815 128.406 22.9279 127.625 22.9279Z" fill="#FEFEFE"/>
</svg>
