<svg width="109" height="29" viewBox="0 0 109 29" fill="none" xmlns="http://www.w3.org/2000/svg">
<path d="M11.88 0V1.36H6.2V4.28H8.52C8.62667 4.28 8.81333 4.28 9.08 4.28C9.36 4.28 9.67333 4.29333 10.02 4.32C10.38 4.33333 10.72 4.36667 11.04 4.42C11.3733 4.46 11.6467 4.52667 11.86 4.62C12.0733 4.7 12.18 4.81333 12.18 4.96V9.32C12.18 9.45333 12.06 9.56667 11.82 9.66C11.58 9.75333 11.2867 9.82667 10.94 9.88C10.6067 9.92 10.2867 9.95333 9.98 9.98C9.68667 9.99333 9.48667 10 9.38 10H0.6V8.64H6.58V5.64H4.26C4.15333 5.64 3.96 5.64 3.68 5.64C3.41333 5.64 3.1 5.63333 2.74 5.62C2.39333 5.59333 2.05333 5.56 1.72 5.52C1.4 5.46667 1.13333 5.39333 0.92 5.3C0.706667 5.20667 0.6 5.09333 0.6 4.96V0.68C0.6 0.533333 0.72 0.42 0.96 0.34C1.2 0.246666 1.48667 0.18 1.82 0.139999C2.16667 0.0866663 2.48667 0.053333 2.78 0.0399995C3.08667 0.0133332 3.29333 0 3.4 0H11.88ZM13.3734 0H18.9734V8.64H20.5734V0H26.1734V9.32C26.1734 9.45333 26.0534 9.56667 25.8134 9.66C25.5734 9.75333 25.2801 9.82667 24.9334 9.88C24.6001 9.92 24.2801 9.95333 23.9734 9.98C23.6801 9.99333 23.4801 10 23.3734 10H16.1734C16.0668 10 15.8601 9.99333 15.5534 9.98C15.2601 9.95333 14.9401 9.92 14.5934 9.88C14.2601 9.82667 13.9734 9.75333 13.7334 9.66C13.4934 9.56667 13.3734 9.45333 13.3734 9.32V0ZM32.9773 10H27.3773V0.68C27.3773 0.533333 27.4973 0.42 27.7373 0.34C27.9773 0.246666 28.264 0.18 28.5973 0.139999C28.944 0.0866663 29.264 0.053333 29.5573 0.0399995C29.864 0.0133332 30.0707 0 30.1773 0H36.9773C37.084 0 37.2707 0.00666658 37.5373 0.0199997C37.8173 0.0333329 38.1107 0.0666662 38.4173 0.12C38.7373 0.16 39.024 0.22 39.2773 0.3C39.5307 0.366666 39.6907 0.46 39.7573 0.58C39.824 0.46 39.9773 0.366666 40.2173 0.3C40.4707 0.22 40.744 0.16 41.0373 0.12C41.344 0.0799998 41.6307 0.053333 41.8973 0.0399995C42.1773 0.0133332 42.384 0 42.5173 0H43.7773C43.884 0 44.084 0.0133332 44.3773 0.0399995C44.684 0.053333 45.004 0.0866663 45.3373 0.139999C45.684 0.18 45.9773 0.246666 46.2173 0.34C46.4573 0.42 46.5773 0.533333 46.5773 0.68V10H40.9773V1.36H39.7773V10H34.1773V1.36H32.9773V10ZM53.368 10H47.768V0.68C47.768 0.533333 47.888 0.42 48.128 0.34C48.368 0.246666 48.6546 0.18 48.988 0.139999C49.3346 0.0866663 49.6546 0.053333 49.948 0.0399995C50.2546 0.0133332 50.4613 0 50.568 0H57.368C57.4746 0 57.6613 0.00666658 57.928 0.0199997C58.208 0.0333329 58.5013 0.0666662 58.808 0.12C59.128 0.16 59.4146 0.22 59.668 0.3C59.9213 0.366666 60.0813 0.46 60.148 0.58C60.2146 0.46 60.368 0.366666 60.608 0.3C60.8613 0.22 61.1346 0.16 61.428 0.12C61.7346 0.0799998 62.0213 0.053333 62.288 0.0399995C62.568 0.0133332 62.7746 0 62.908 0H64.168C64.2746 0 64.4746 0.0133332 64.768 0.0399995C65.0746 0.053333 65.3946 0.0866663 65.728 0.139999C66.0746 0.18 66.368 0.246666 66.608 0.34C66.848 0.42 66.968 0.533333 66.968 0.68V10H61.368V1.36H60.168V10H54.568V1.36H53.368V10ZM80.7586 8.64V10H70.9586C70.8519 10 70.6453 9.99333 70.3386 9.98C70.0453 9.95333 69.7253 9.92 69.3786 9.88C69.0453 9.82667 68.7586 9.75333 68.5186 9.66C68.2786 9.56667 68.1586 9.45333 68.1586 9.32V0.68C68.1586 0.533333 68.2786 0.42 68.5186 0.34C68.7586 0.246666 69.0453 0.18 69.3786 0.139999C69.7253 0.0866663 70.0453 0.053333 70.3386 0.0399995C70.6453 0.0133332 70.8519 0 70.9586 0H78.1586C78.2653 0 78.4653 0.0133332 78.7586 0.0399995C79.0653 0.053333 79.3853 0.0866663 79.7186 0.139999C80.0653 0.18 80.3586 0.246666 80.5986 0.34C80.8386 0.42 80.9586 0.533333 80.9586 0.68V6.48C80.9586 6.61333 80.8386 6.72667 80.5986 6.82C80.3586 6.91333 80.0653 6.98667 79.7186 7.04C79.3853 7.08 79.0653 7.11333 78.7586 7.14C78.4653 7.15333 78.2653 7.16 78.1586 7.16H76.5386C76.4053 7.16 76.1986 7.15333 75.9186 7.14C75.6386 7.12667 75.3453 7.1 75.0386 7.06C74.7319 7.00667 74.4586 6.94 74.2186 6.86C73.9786 6.78 73.8253 6.68 73.7586 6.56V8.64H80.7586ZM73.7586 5.8H75.3586V1.36H73.7586V5.8ZM87.7625 10H82.1625V0.68C82.1625 0.533333 82.2825 0.42 82.5225 0.34C82.7625 0.246666 83.0492 0.18 83.3825 0.139999C83.7292 0.0866663 84.0492 0.053333 84.3425 0.0399995C84.6492 0.0133332 84.8558 0 84.9625 0H90.9825V1.36H87.7625V10ZM10.6 19V20.36H6.2V27.64H10.6V29H3.4C3.29333 29 3.08667 28.9933 2.78 28.98C2.48667 28.9533 2.16667 28.92 1.82 28.88C1.48667 28.8267 1.2 28.7533 0.96 28.66C0.72 28.5667 0.6 28.4533 0.6 28.32V19.68C0.6 19.5333 0.72 19.42 0.96 19.34C1.2 19.2467 1.48667 19.18 1.82 19.14C2.16667 19.0867 2.48667 19.0533 2.78 19.04C3.08667 19.0133 3.29333 19 3.4 19H10.6ZM21.7914 29H14.5914C14.4847 29 14.2781 28.9933 13.9714 28.98C13.6781 28.9533 13.3581 28.92 13.0114 28.88C12.6781 28.8267 12.3914 28.7533 12.1514 28.66C11.9114 28.5667 11.7914 28.4533 11.7914 28.32V19.68C11.7914 19.5333 11.9114 19.42 12.1514 19.34C12.3914 19.2467 12.6781 19.18 13.0114 19.14C13.3581 19.0867 13.6781 19.0533 13.9714 19.04C14.2781 19.0133 14.4847 19 14.5914 19H21.7914C21.8981 19 22.0981 19.0133 22.3914 19.04C22.6981 19.0533 23.0181 19.0867 23.3514 19.14C23.6981 19.18 23.9914 19.2467 24.2314 19.34C24.4714 19.42 24.5914 19.5333 24.5914 19.68V28.32C24.5914 28.4533 24.4714 28.5667 24.2314 28.66C23.9914 28.7533 23.6981 28.8267 23.3514 28.88C23.0181 28.92 22.6981 28.9533 22.3914 28.98C22.0981 28.9933 21.8981 29 21.7914 29ZM17.3914 27.64H18.9914V20.36H17.3914V27.64ZM31.3953 29H25.7953V15.1H31.3953V29ZM38.1922 29H32.5922V15.1H38.1922V29ZM51.9891 27.64V29H42.1891C42.0824 29 41.8757 28.9933 41.5691 28.98C41.2757 28.9533 40.9557 28.92 40.6091 28.88C40.2757 28.8267 39.9891 28.7533 39.7491 28.66C39.5091 28.5667 39.3891 28.4533 39.3891 28.32V19.68C39.3891 19.5333 39.5091 19.42 39.7491 19.34C39.9891 19.2467 40.2757 19.18 40.6091 19.14C40.9557 19.0867 41.2757 19.0533 41.5691 19.04C41.8757 19.0133 42.0824 19 42.1891 19H49.3891C49.4957 19 49.6957 19.0133 49.9891 19.04C50.2957 19.0533 50.6157 19.0867 50.9491 19.14C51.2957 19.18 51.5891 19.2467 51.8291 19.34C52.0691 19.42 52.1891 19.5333 52.1891 19.68V25.48C52.1891 25.6133 52.0691 25.7267 51.8291 25.82C51.5891 25.9133 51.2957 25.9867 50.9491 26.04C50.6157 26.08 50.2957 26.1133 49.9891 26.14C49.6957 26.1533 49.4957 26.16 49.3891 26.16H47.7691C47.6357 26.16 47.4291 26.1533 47.1491 26.14C46.8691 26.1267 46.5757 26.1 46.2691 26.06C45.9624 26.0067 45.6891 25.94 45.4491 25.86C45.2091 25.78 45.0557 25.68 44.9891 25.56V27.64H51.9891ZM44.9891 24.8H46.5891V20.36H44.9891V24.8ZM63.393 19V20.36H58.993V27.64H63.393V29H56.193C56.0863 29 55.8796 28.9933 55.573 28.98C55.2796 28.9533 54.9596 28.92 54.613 28.88C54.2796 28.8267 53.993 28.7533 53.753 28.66C53.513 28.5667 53.393 28.4533 53.393 28.32V19.68C53.393 19.5333 53.513 19.42 53.753 19.34C53.993 19.2467 54.2796 19.18 54.613 19.14C54.9596 19.0867 55.2796 19.0533 55.573 19.04C55.8796 19.0133 56.0863 19 56.193 19H63.393ZM64.5844 20.76V19.4H66.3844V16.6H71.5844V19.4H73.9844V20.76H71.5844V27.64H73.9844V29H68.7844C68.6777 29 68.471 28.9933 68.1644 28.98C67.871 28.9533 67.551 28.92 67.2044 28.88C66.871 28.8267 66.5844 28.7533 66.3444 28.66C66.1044 28.5667 65.9844 28.4533 65.9844 28.32V21.62C65.9844 21.5 66.071 21.4 66.2444 21.32C66.431 21.24 66.6577 21.18 66.9244 21.14C67.191 21.0867 67.4577 21.0467 67.7244 21.02C68.0044 20.9933 68.2444 20.9733 68.4444 20.96V20.76H64.5844ZM80.8098 18H75.2098V16.38C75.2098 16.2333 75.3298 16.12 75.5698 16.04C75.8098 15.9467 76.0965 15.88 76.4298 15.84C76.7765 15.7867 77.0965 15.7533 77.3898 15.74C77.6965 15.7133 77.9032 15.7 78.0098 15.7H80.8098V18ZM75.1898 19H80.7898V29H75.1898V19ZM92.0063 29H84.8063C84.6996 29 84.4929 28.9933 84.1863 28.98C83.8929 28.9533 83.5729 28.92 83.2263 28.88C82.8929 28.8267 82.6062 28.7533 82.3663 28.66C82.1263 28.5667 82.0063 28.4533 82.0063 28.32V19.68C82.0063 19.5333 82.1263 19.42 82.3663 19.34C82.6062 19.2467 82.8929 19.18 83.2263 19.14C83.5729 19.0867 83.8929 19.0533 84.1863 19.04C84.4929 19.0133 84.6996 19 84.8063 19H92.0063C92.1129 19 92.3129 19.0133 92.6063 19.04C92.9129 19.0533 93.2329 19.0867 93.5663 19.14C93.9129 19.18 94.2063 19.2467 94.4463 19.34C94.6863 19.42 94.8063 19.5333 94.8063 19.68V28.32C94.8063 28.4533 94.6863 28.5667 94.4463 28.66C94.2063 28.7533 93.9129 28.8267 93.5663 28.88C93.2329 28.92 92.9129 28.9533 92.6063 28.98C92.3129 28.9933 92.1129 29 92.0063 29ZM87.6063 27.64H89.2063V20.36H87.6063V27.64ZM101.61 29H96.0102V19H106.01C106.117 19 106.317 19.0133 106.61 19.04C106.917 19.0533 107.237 19.0867 107.57 19.14C107.917 19.18 108.21 19.2467 108.45 19.34C108.69 19.42 108.81 19.5333 108.81 19.68V29H103.21V20.36H101.61V29Z" fill="#FEFEFE"/>
</svg>
