<svg width="99" height="53" viewBox="0 0 99 53" fill="none" xmlns="http://www.w3.org/2000/svg">
    <path d="M33.091 23.069V.785h-7.178v22.284h7.178zM42.932 23.068V9.402c1.081-1.863 2.563-2.793 4.447-2.793.54 0 .988.032 1.343.096.354.064.923.206 1.185.206.309 0 .675.07.837-.116.163-.187.18-1.402.928-2.788.56-1.04 1.494-1.872 1.494-2.08 0-.693-1.494-1.04-1.494-1.04S50.354.542 49.057.542c-1.296 0-2.505.18-3.601.911-1.096.73-2.084 1.726-2.964 2.987l-.394-2.084a4.114 4.114 0 0 0-.22-.73 1.15 1.15 0 0 0-.37-.484 1.622 1.622 0 0 0-.602-.268 3.902 3.902 0 0 0-.892-.087h-4.26v22.282h7.178zM62.43.404c1.018 0 1.978.093 2.88.28.903.186 1.74.451 2.51.795h7.242v2.43l-.002.068c-.013.34-.124.61-.334.813-.223.215-.605.38-1.145.494l-1.758.365.042.13c.188.604.282 1.227.282 1.87 0 1.117-.251 2.12-.752 3.009a6.993 6.993 0 0 1-2.06 2.267c-.87.624-1.9 1.103-3.088 1.44-1.187.337-2.46.506-3.817.506-.756 0-1.465-.043-2.129-.13-.524.287-.787.617-.787.99 0 .371.212.64.637.805.424.165.982.28 1.677.344.694.065 1.488.108 2.382.13.895.02 1.805.071 2.73.15.926.078 1.836.211 2.73.397.895.187 1.69.488 2.383.903.695.416 1.254.971 1.678 1.666.424.695.636 1.58.636 2.655 0 1.003-.262 1.985-.787 2.945-.524.96-1.296 1.813-2.313 2.558-1.018.745-2.267 1.343-3.748 1.794-1.48.452-3.177.678-5.09.678-1.913 0-3.505-.165-4.87-.495-1.365-.329-2.498-.762-3.4-1.3-.903-.537-1.57-1.157-2.001-1.86-.432-.701-.648-1.432-.648-2.192 0-.988.323-1.823.971-2.504.648-.68 1.535-1.215 2.66-1.602a3.913 3.913 0 0 1-1.295-1.268c-.323-.515-.485-1.168-.485-1.956 0-.33.062-.677.185-1.043.123-.365.316-.72.578-1.063.262-.344.594-.674.995-.989.4-.315.879-.594 1.434-.838-1.25-.617-2.232-1.433-2.95-2.45-.717-1.018-1.075-2.2-1.075-3.548 0-1.117.255-2.124.764-3.02a6.99 6.99 0 0 1 2.094-2.278c.886-.624 1.931-1.104 3.134-1.44 1.203-.337 2.506-.506 3.91-.506zm-3.183 21.467a4.577 4.577 0 0 0-1.099.957 1.841 1.841 0 0 0-.428 1.193c0 .315.074.602.22.86.147.258.405.48.775.666.37.186.868.334 1.493.44.625.108 1.415.162 2.371.162 1.033 0 1.881-.057 2.545-.172.663-.114 1.191-.272 1.584-.473.394-.2.667-.44.822-.72.154-.28.231-.584.231-.913 0-.358-.119-.645-.358-.86-.239-.215-.563-.387-.971-.516a7.326 7.326 0 0 0-1.435-.28 30.42 30.42 0 0 0-1.77-.128c-.632-.03-1.288-.054-1.966-.076a26.82 26.82 0 0 1-2.013-.14h-.001zM62.44 4.87c-1.188 0-2.048.258-2.58.773-.532.516-.798 1.226-.798 2.129 0 .43.065.824.197 1.182.13.358.335.67.612.935.278.265.63.473 1.053.624.424.15.93.226 1.516.226 1.187 0 2.047-.277 2.58-.828.531-.552.797-1.265.797-2.139 0-.874-.266-1.612-.798-2.128s-1.392-.774-2.58-.774z" fill="#FEFEFE"/>
    <path d="M86.471.42c1.82 0 3.478.265 4.974.795s2.78 1.29 3.852 2.279c1.073.988 1.905 2.189 2.499 3.6.594 1.412.89 3 .89 4.761 0 1.763-.296 3.379-.89 4.805-.594 1.425-1.427 2.637-2.499 3.632-1.072.996-2.356 1.762-3.852 2.3-1.496.537-3.154.806-4.974.806-1.82 0-3.504-.268-5.008-.806-1.504-.537-2.8-1.304-3.887-2.3-1.087-.996-1.928-2.207-2.522-3.633-.594-1.425-.89-3.027-.89-4.803 0-1.777.296-3.35.89-4.762a10.086 10.086 0 0 1 2.522-3.6c1.087-.989 2.383-1.749 3.887-2.28C82.967.685 84.636.42 86.47.42zm0 4.944c-1.697 0-2.938.537-3.724 1.612-.787 1.074-1.18 2.715-1.18 4.922s.393 3.852 1.18 4.933c.786 1.082 2.028 1.623 3.724 1.623 1.697 0 2.865-.54 3.644-1.623.779-1.081 1.168-2.726 1.168-4.933s-.39-3.848-1.168-4.922c-.779-1.075-1.993-1.612-3.644-1.612zM7.504 23.168v-9.94h1.384c.461 0 .807.054 1.038.161.23.107.454.34.669.697l4.522 7.868c.246.414.565.703.957.868.393.164.858.246 1.396.246h6.516l-6.771-10.685c-.51-.805-1.113-1.45-1.809-1.94.402-.23.777-.488 1.125-.775.348-.287.669-.617.962-.99L23.708.725h-6.564c-.556 0-1.016.087-1.379.258a2.414 2.414 0 0 0-.938.819L10.285 8.09c-.217.302-.444.51-.684.625-.24.114-.583.172-1.031.172H7.504V.642H.314v22.525h7.19z" fill="#FEFEFE"/>
    <path d="M45.245 42.136c-.878.152-1.68.106-2.407-.136a3.858 3.858 0 0 1-1.771-1.317c-.424-.635-.636-1.438-.636-2.406-.09-.909.015-1.953.318-3.134.303-1.21.742-2.421 1.317-3.632.605-1.211 1.256-2.256 1.952-3.134a29.835 29.835 0 0 1 1.817-1.998c.605-.605 1.15-1.014 1.635-1.226a3.833 3.833 0 0 1 1.18-.318c.394-.06.712-.09.954-.09.484.12.999.348 1.544.68.575.303.862.636.862 1l.091.136.137.09c.181 0 .333.198.454.591.151.394.242.848.272 1.362.03.485-.045.893-.227 1.227a3.941 3.941 0 0 1-.636 1.498c-.302.424-.575.636-.817.636-.121 0-.242.015-.363.045-.091 0-.136.076-.136.227 0 .152-.091.212-.273.182-.151-.03-.318-.121-.5-.273a1.766 1.766 0 0 1-.408-.635c0-.152.06-.409.181-.772.122-.364.243-.833.364-1.408.181-.848.166-1.393-.046-1.635-.212-.272-.62-.287-1.226-.045-.757.424-1.483 1.014-2.18 1.77-.665.758-1.286 1.742-1.861 2.952-.575 1.181-1.09 2.665-1.544 4.45-.182.697-.257 1.302-.227 1.817.06.515.136.787.227.817.424.121.999.152 1.725.091.727-.09 1.257-.227 1.59-.409.484-.242 1.03-.56 1.635-.953a89.738 89.738 0 0 0 1.589-1.135 3.05 3.05 0 0 0 .545-.455c.212-.211.439-.378.68-.499.243-.363.455-.575.637-.636.181-.06.454-.09.817-.09.242.06.47.15.681.272.212.121.348.242.409.363.09.121.045.227-.136.318-.121 0-.197.046-.227.136v.091c.06.121-.076.378-.41.772-.302.363-.695.772-1.18 1.226-.484.454-.953.848-1.407 1.18-.424.303-.727.455-.909.455-.302 0-.454.09-.454.272 0 .06-.227.212-.68.454-.425.243-.924.485-1.5.727a7.552 7.552 0 0 1-1.453.5zm10.329-.908c-.091.03-.242.015-.454-.045a5.33 5.33 0 0 1-.636-.227c-.212-.091-.348-.167-.409-.227a2.115 2.115 0 0 1-.363-.545c-.09-.242-.09-.59 0-1.045.09-.484.393-1.105.908-1.861.152-.303.333-.757.545-1.363a70.39 70.39 0 0 0 .636-1.907c.242-.696.454-1.317.636-1.862.212-.544.363-.923.454-1.135.06-.514.03-.878-.091-1.09-.091-.242-.348-.378-.772-.408-.303 0-.545-.03-.727-.091-.151-.06-.227-.364-.227-.908.06-.424.167-.712.318-.863.182-.182.424-.379.727-.59.302-.152.605-.258.908-.318.333-.06.65-.076.953-.046.303.03.545.137.727.318.212.121.348.394.409.817.06.394.09.803.09 1.226.03.424.061.742.091.954.303-.242.712-.575 1.226-.999a21.13 21.13 0 0 0 1.408-1.271c.485-.333 1.06-.666 1.726-1 .666-.363 1.15-.544 1.453-.544.333 0 .666.09.999.272.333.152.56.348.68.59.304.515.44.97.41 1.363 0 .393-.167.802-.5 1.226a2.342 2.342 0 0 1-1.135.817c-.424.152-.696.227-.817.227-.182 0-.41-.136-.682-.408-.272-.273-.423-.5-.454-.682 0-.09-.197 0-.59.273-.363.242-.772.56-1.226.953-.454.364-.833.697-1.135 1-.515.635-1.06 1.498-1.635 2.588a320.801 320.801 0 0 0-2.044 3.95c-.363.757-.62 1.408-.772 1.953-.15.515-.363.818-.635.908zm17.953-.181A3.994 3.994 0 0 1 71.3 42c-.817.091-1.62-.03-2.406-.363a4.852 4.852 0 0 1-1.953-1.635 5.133 5.133 0 0 1-.999-2.27c-.151-.878-.166-2.013-.045-3.406.09-1.18.469-2.361 1.135-3.542a14.223 14.223 0 0 1 2.407-3.224c.968-.938 1.922-1.59 2.86-1.953.454-.302.833-.439 1.136-.408.333 0 .832.03 1.498.09.697.091 1.211.228 1.544.41.363.18.651.423.863.726.454.454.757.908.908 1.362.151.424.227.848.227 1.271-.12.666-.575 1.484-1.362 2.453-.757.938-1.756 1.71-2.997 2.316a6.34 6.34 0 0 1-2.18.272c-.787-.03-1.438-.227-1.952-.59-.576-.242-.954-.197-1.136.136-.181.303-.348 1.06-.5 2.27-.12 1.15-.03 1.998.273 2.543.303.515.712.818 1.226.909a88.15 88.15 0 0 0 1.408.272c.363.03.802-.106 1.317-.409.484-.302.787-.469.908-.5.121-.06.212-.12.273-.18.09-.092.287-.288.59-.591.212-.212.378-.364.5-.454a.565.565 0 0 1 .408-.182c.151 0 .288.076.409.227.12.121.242.212.363.273.303 0 .363.181.182.544-.152.364-.47.803-.954 1.317-.484.485-1.06.939-1.725 1.363zm-.046-9.627a5.682 5.682 0 0 0 1.044-.636c.364-.303.666-.62.909-.953.272-.364.408-.666.408-.909 0-.424-.196-.772-.59-1.044-.393-.303-.984-.348-1.77-.136-.334.09-.712.317-1.136.68-.424.334-.833.712-1.226 1.136a18.55 18.55 0 0 0-.908 1.135c-.212.333-.288.53-.227.59.09.152.348.273.772.364.423.06.893.076 1.407.045.545-.03.984-.12 1.317-.272zm16.356 9.9c-.242.03-.56-.107-.953-.41a9.087 9.087 0 0 1-1.135-1.044c-.273-.424-.5-1.12-.682-2.089a31.334 31.334 0 0 1-.317-2.997c-.878 1.332-1.665 2.422-2.362 3.27-.696.847-1.332 1.513-1.907 1.998-.545.454-1.06.756-1.544.908-.272.09-.5.09-.681 0a1.454 1.454 0 0 1-.454-.5c-.121-.212-.257-.545-.409-.999a4.945 4.945 0 0 1-.136-1.498c-.06-.636-.121-1.363-.182-2.18l-.09-2.407c0-.817.015-1.544.045-2.18.03-.635.09-1.059.182-1.27a1.492 1.492 0 0 1-.046-.364v-.182c-.09-.151-.136-.484-.136-.999.03-.544.09-1.074.182-1.589.09-.515.166-.832.227-.954a.686.686 0 0 1 .227-.272c.12-.06.257-.106.408-.136.454.09.697.272.727.545.09.06.181.151.272.272.091.091.197.121.318.091.091.06.152.333.182.817.06.485.09 1.045.09 1.68-.03.303-.03.59 0 .863.031.273.016.515-.045.727 0 .151.015.484.046.999l.09 1.498c0 .394-.015.924-.045 1.59-.03.635-.045 1.165-.045 1.589.09.605.166.999.227 1.18.09.152.227.167.408.046.182-.06.5-.454.954-1.18a54.75 54.75 0 0 0 1.68-2.725c.484-.727.893-1.347 1.226-1.862.363-.545.666-.969.908-1.271.091-.727.182-1.378.273-1.953.121-.575.197-.984.227-1.226.424-.424.802-.666 1.135-.727.333-.09.606.076.817.5.303.121.485.318.545.59.091.242.106.53.046.863-.121.424-.242.832-.363 1.226-.091.394-.197.802-.318 1.226-.121.424-.212 1.105-.273 2.044-.03.938-.03 1.876 0 2.815.03.908.106 1.59.227 2.043.03.273.182.409.454.409.303-.03.682-.242 1.136-.636.454-.484.953-1.09 1.498-1.816a26.923 26.923 0 0 0 1.453-2.089c.424-.636.636-1.03.636-1.18 0-.243.06-.5.182-.773.12-.302.272-.53.454-.68.151-.182.242-.364.272-.546.03-.212.091-.423.182-.635l.136-.273c.06-.12.106-.242.136-.363-.09-.212-.03-.394.182-.545.242-.182.394-.363.454-.545.06-.393.227-.62.5-.681.302-.09.59-.03.862.182.303.181.47.469.5.862 0 .364-.121.893-.364 1.59a14.37 14.37 0 0 1-.908 2.225 13.112 13.112 0 0 1-1.226 2.134l-.363.727c-.09.242-.257.56-.5.953-.242.394-.665.969-1.271 1.726-.182.242-.394.5-.636.772a7.25 7.25 0 0 1-.68.68c-.515.667-.985 1.181-1.408 1.545-.394.363-.803.56-1.227.59z" fill="#DF5386"/>
</svg>
