<svg width="20" height="20" viewBox="0 0 20 20" fill="none" xmlns="http://www.w3.org/2000/svg">
    <path d="M1.058 5.969c.045-.969.196-1.593.401-2.123l.003-.007c.203-.54.522-1.028.933-1.432L2.4 2.4l.005-.006c.404-.411.893-.73 1.432-.932l.01-.004c.528-.205 1.151-.356 2.12-.4m-4.91 4.91C1.012 7.003 1 7.324 1 10.006c0 2.683.011 3.003.058 4.037m0-8.074v.26m4.91-5.17C7.003 1.01 7.324 1 10.006 1c2.682 0 3.003.012 4.037.058m-8.075 0h.262M1.058 14.043c.045.97.196 1.593.401 2.121l.004.01m-.405-2.13.016.083m-.016-.084v-.261m0-7.552.012-.262c.049-1.059.229-1.678.4-2.117a3.943 3.943 0 0 1 .934-1.438c.409-.419.905-.742 1.454-.945.437-.17 1.055-.35 2.11-.398l.262-.012M1.058 6.23c-.038.876-.046 1.36-.046 3.776 0 2.415.008 2.9.046 3.776m0-7.552v7.552m.405 2.392a3.96 3.96 0 0 0 .932 1.432l.006.005.006.006c.404.411.892.73 1.432.933l.008.003c.529.205 1.153.356 2.121.4m-4.505-2.78-.012-.063m0 0-.377-1.983m.377 1.983c-.16-.423-.325-1.012-.377-1.983m.377 1.983.017.044c.202.546.524 1.041.94 1.45.408.416.903.737 1.45.94.438.17 1.056.35 2.11.398 1.064.048 1.393.058 4.038.058 2.645 0 2.974-.01 4.038-.058 1.055-.049 1.672-.228 2.11-.398a3.946 3.946 0 0 0 1.45-.94 3.95 3.95 0 0 0 .94-1.45c.17-.438.35-1.056.398-2.11.048-1.064.058-1.394.058-4.038 0-2.645-.01-2.974-.058-4.038-.049-1.06-.23-1.679-.4-2.116a3.942 3.942 0 0 0-.94-1.444 3.944 3.944 0 0 0-1.441-.938c-.44-.171-1.058-.351-2.117-.4l-.262-.012M1.074 14.127a151.69 151.69 0 0 1-.016-.345M13.782 1.058h.261m-.261 0H6.23m7.552 0c-.876-.038-1.36-.046-3.776-.046-2.415 0-2.9.008-3.776.046m7.813 0c.968.045 1.593.196 2.123.401l.007.003c.54.203 1.028.522 1.432.933l.006.005.005.006c.412.404.73.893.933 1.432l.003.01c.206.528.357 1.151.401 2.12m0 8.075c-.044.97-.195 1.593-.4 2.122l-.003.008a3.965 3.965 0 0 1-.933 1.432l-.006.006-.005.006c-.405.411-.893.73-1.432.932l-.01.003c-.528.206-1.152.357-2.12.401m-5.64-5.08a4.185 4.185 0 1 0 3.203-7.733 4.185 4.185 0 0 0-3.203 7.733zM7.037 7.037a4.199 4.199 0 1 1 5.938 5.938 4.199 4.199 0 0 1-5.938-5.938zm9.532-2.207a1.202 1.202 0 1 1-2.403 0 1.202 1.202 0 0 1 2.403 0z" stroke="#000" stroke-width="1.2" stroke-linejoin="round"/>
</svg>
