<svg width="29" height="29" viewBox="0 0 29 29" fill="none" xmlns="http://www.w3.org/2000/svg">
    <path fill-rule="evenodd" clip-rule="evenodd" d="M21 2H8a6 6 0 0 0-6 6v13a6 6 0 0 0 6 6h13a6 6 0 0 0 6-6V8a6 6 0 0 0-6-6zM8 0a8 8 0 0 0-8 8v13a8 8 0 0 0 8 8h13a8 8 0 0 0 8-8V8a8 8 0 0 0-8-8H8z" fill="#000"/>
    <path fill-rule="evenodd" clip-rule="evenodd" d="M14.5 19a4.5 4.5 0 1 0 0-9 4.5 4.5 0 0 0 0 9zm0 2a6.5 6.5 0 1 0 0-13 6.5 6.5 0 0 0 0 13zM22 5.75a1.25 1.25 0 1 0 0 2.5 1.25 1.25 0 0 0 0-2.5zM19.25 7a2.75 2.75 0 1 1 5.5 0 2.75 2.75 0 0 1-5.5 0z" fill="#000"/>
</svg>
