<svg width="60" height="26" viewBox="0 0 60 26" fill="none" xmlns="http://www.w3.org/2000/svg">
    <g filter="url(#gy5p4wq19a)" fill="#fff">
        <path d="M21.66 15.52V4.192H18.01V15.52h3.649zM26.662 15.52V8.572c.55-.946 1.303-1.42 2.26-1.42.274 0 .502.017.683.05.18.032.469.104.602.104.157 0 .343.036.425-.059.083-.095.092-.712.472-1.417.284-.528.76-.951.76-1.057 0-.352-.76-.528-.76-.528s-.67-.176-1.329-.176c-.659 0-1.273.091-1.83.463-.557.37-1.06.877-1.507 1.518l-.2-1.06a2.086 2.086 0 0 0-.112-.37.584.584 0 0 0-.188-.246.824.824 0 0 0-.306-.137 1.982 1.982 0 0 0-.453-.044h-2.166V15.52h3.649zM36.572 4c.517 0 1.005.047 1.464.142.459.095.884.23 1.276.404h3.68v1.27a.58.58 0 0 1-.17.413c-.114.11-.308.193-.582.251l-.894.186.021.065c.096.308.144.624.144.951 0 .568-.128 1.078-.383 1.53a3.554 3.554 0 0 1-1.046 1.152c-.443.317-.967.56-1.57.732a7.082 7.082 0 0 1-1.94.257c-.384 0-.745-.022-1.082-.066-.267.146-.4.313-.4.503 0 .189.108.326.323.41.216.083.5.142.853.174.352.033.756.055 1.21.066.455.01.918.036 1.389.076.47.04.932.108 1.387.202a3.88 3.88 0 0 1 1.211.46c.353.21.637.493.853.846.215.353.323.803.323 1.35 0 .51-.133 1.008-.4 1.496s-.658.921-1.176 1.3c-.517.379-1.152.683-1.905.912-.752.23-1.614.345-2.587.345-.972 0-1.78-.084-2.475-.252-.693-.167-1.27-.387-1.728-.66-.459-.274-.798-.589-1.017-.946a2.097 2.097 0 0 1-.33-1.114c0-.502.165-.927.494-1.273.33-.346.78-.617 1.352-.814a1.988 1.988 0 0 1-.658-.644c-.164-.263-.247-.594-.247-.995 0-.167.032-.344.094-.53a1.89 1.89 0 0 1 .294-.54 2.83 2.83 0 0 1 .506-.503 3.35 3.35 0 0 1 .729-.426c-.635-.313-1.135-.728-1.5-1.245-.364-.517-.546-1.118-.546-1.803 0-.568.13-1.08.388-1.535a3.552 3.552 0 0 1 1.064-1.158 5.17 5.17 0 0 1 1.594-.732A7.347 7.347 0 0 1 36.572 4zm-1.618 10.91a2.327 2.327 0 0 0-.559.487.936.936 0 0 0-.105 1.044c.074.13.206.244.394.338.188.095.441.17.758.224.318.055.72.082 1.206.082.525 0 .956-.029 1.293-.087.337-.058.606-.138.805-.24.2-.103.34-.224.418-.366a.946.946 0 0 0 .118-.465.56.56 0 0 0-.182-.437 1.328 1.328 0 0 0-.494-.262 3.73 3.73 0 0 0-.73-.142c-.278-.03-.578-.05-.899-.066a71.013 71.013 0 0 0-1-.038c-.344-.01-.685-.035-1.022-.07l-.001-.001zm1.623-8.641c-.604 0-1.041.131-1.311.393s-.406.623-.406 1.082c0 .219.033.419.1.601.066.182.17.34.312.475.14.135.319.24.534.317.216.077.473.115.77.115.604 0 1.041-.14 1.312-.42.27-.281.406-.643.406-1.088 0-.444-.136-.819-.406-1.081s-.707-.394-1.311-.394z"/>
        <path d="M48.791 4.007c.925 0 1.768.135 2.528.405.76.269 1.413.655 1.958 1.158a5.191 5.191 0 0 1 1.27 1.83c.302.717.453 1.524.453 2.42 0 .896-.15 1.717-.453 2.441a5.224 5.224 0 0 1-1.27 1.847 5.64 5.64 0 0 1-1.958 1.169c-.76.273-1.603.41-2.528.41s-1.781-.137-2.545-.41a5.75 5.75 0 0 1-1.976-1.17 5.16 5.16 0 0 1-1.282-1.845c-.302-.725-.453-1.54-.453-2.442 0-.903.151-1.703.453-2.42a5.127 5.127 0 0 1 1.282-1.83 5.728 5.728 0 0 1 1.975-1.158c.765-.27 1.614-.405 2.546-.405zm0 2.513c-.862 0-1.493.273-1.893.82-.4.546-.6 1.38-.6 2.502 0 1.121.2 1.957.6 2.507.4.55 1.03.825 1.893.825s1.456-.275 1.852-.825c.396-.55.594-1.386.594-2.507 0-1.122-.198-1.956-.594-2.502-.396-.547-1.013-.82-1.852-.82zM8.654 15.57v-5.052h.704c.234 0 .41.027.528.082.117.054.23.172.34.354l2.298 3.999c.125.21.287.358.487.441.2.084.436.126.71.126h3.31l-3.44-5.432a3.423 3.423 0 0 0-.92-.985 4.08 4.08 0 0 0 .572-.394c.177-.146.34-.314.489-.504l3.159-4.041h-3.336c-.283 0-.517.044-.701.131a1.227 1.227 0 0 0-.477.416l-2.309 3.196a.956.956 0 0 1-.348.317c-.121.058-.296.088-.524.088h-.542v-4.19H5V15.57h3.654z"/>
    </g>
    <defs>
        <filter id="gy5p4wq19a" x="0" y="0" width="60" height="25.427" filterUnits="userSpaceOnUse" color-interpolation-filters="sRGB">
            <feFlood flood-opacity="0" result="BackgroundImageFix"/>
            <feColorMatrix in="SourceAlpha" values="0 0 0 0 0 0 0 0 0 0 0 0 0 0 0 0 0 0 127 0" result="hardAlpha"/>
            <feOffset dy="1"/>
            <feGaussianBlur stdDeviation="2.5"/>
            <feComposite in2="hardAlpha" operator="out"/>
            <feColorMatrix values="0 0 0 0 0 0 0 0 0 0 0 0 0 0 0 0 0 0 0.25 0"/>
            <feBlend in2="BackgroundImageFix" result="effect1_dropShadow_204_245"/>
            <feBlend in="SourceGraphic" in2="effect1_dropShadow_204_245" result="shape"/>
        </filter>
    </defs>
</svg>
