<svg width="28" height="28" viewBox="0 0 28 28" fill="none" xmlns="http://www.w3.org/2000/svg">
    <path clip-rule="evenodd" d="M24.027 5.203a3.214 3.214 0 0 1 2.27 2.27c.534 2 .536 6.177.536 6.177s0 4.177-.536 6.178a3.214 3.214 0 0 1-2.27 2.27c-2 .536-10.027.536-10.027.536s-8.027 0-10.028-.537a3.214 3.214 0 0 1-2.269-2.269c-.536-2-.536-6.178-.536-6.178s0-4.177.536-6.178a3.214 3.214 0 0 1 2.27-2.269C5.972 4.666 14 4.666 14 4.666s8.027 0 10.027.537zM18.1 13.651 11.43 17.5V9.8l6.668 3.85z" stroke="#000" stroke-width="1.2" stroke-linejoin="round"/>
</svg>
