<svg width="23" height="21" viewBox="0 0 23 21" fill="none" xmlns="http://www.w3.org/2000/svg">
    <path fill-rule="evenodd" clip-rule="evenodd" d="M4.023 5.545c1.026-4.836 7.928-4.836 8.954 0 .015.073.023.148.023.223v.492h2a2 2 0 0 1 2 2v10a1.889 1.889 0 0 1-1.889 1.888H1.89A1.889 1.889 0 0 1 0 18.26v-10a2 2 0 0 1 2-2h2v-.492c0-.075.008-.15.023-.223zM2 8.26v10h13v-10H2zM6 5.87v.389h5V5.87c-.635-2.604-4.365-2.604-5 0z" fill="#fff"/>
    <path d="M22.543 4.161h-2.68V6.84h-1.481V4.161h-2.68V2.679h2.68V0h1.482v2.679h2.679v1.482z" fill="#fff"/>
</svg>
