<svg width="17" height="19" viewBox="0 0 17 19" fill="none" xmlns="http://www.w3.org/2000/svg">
<path d="M15.3463 3.65381H0.7308C0.469749 3.65381 0.228537 3.79311 0.0979477 4.0192C-0.0326492 4.24528 -0.0326492 4.52387 0.0979477 4.74997C0.228545 4.97606 0.469767 5.11536 0.7308 5.11536H1.46158V15.7416C1.46257 16.6055 1.80613 17.4338 2.41699 18.0446C3.02786 18.6555 3.85615 18.9991 4.72007 19.0001H11.357C12.2209 18.9991 13.0492 18.6555 13.6601 18.0446C14.2709 17.4338 14.6145 16.6055 14.6155 15.7416V5.11536H15.3462C15.6073 5.11536 15.8485 4.97606 15.9791 4.74997C16.1097 4.52389 16.1097 4.2453 15.9791 4.0192C15.8485 3.79311 15.6073 3.65381 15.3462 3.65381H15.3463ZM13.154 15.7416C13.1533 16.2179 12.9636 16.6746 12.6267 17.0113C12.29 17.3481 11.8333 17.5378 11.357 17.5385H4.72011C4.24382 17.5378 3.78709 17.3481 3.45038 17.0113C3.11354 16.6746 2.92386 16.2179 2.92313 15.7416V5.11536H13.154V15.7416Z" fill="white"/>
<path d="M5.13965 2.82504C5.3075 2.92196 5.50705 2.94822 5.69416 2.89798C5.88142 2.84788 6.041 2.72542 6.13793 2.55757C6.39541 2.11026 6.80235 1.76826 7.28718 1.59145C7.77216 1.41475 8.30369 1.41475 8.78871 1.59145C9.27358 1.76829 9.68047 2.11026 9.93796 2.55757C10.0303 2.73398 10.1906 2.86515 10.3818 2.92067C10.5731 2.97619 10.7788 2.95122 10.9512 2.85145C11.1236 2.75182 11.2479 2.58612 11.2953 2.39271C11.3427 2.19931 11.309 1.99491 11.2022 1.82679C10.5494 0.696356 9.34333 0 8.03791 0C6.73249 0 5.52645 0.696393 4.87358 1.82679C4.77667 1.9945 4.75012 2.19375 4.80007 2.38101C4.84989 2.56813 4.97208 2.72786 5.13965 2.82504Z" fill="white"/>
<path d="M5.846 15.3462C6.03982 15.3462 6.22567 15.2693 6.36269 15.1321C6.49985 14.9951 6.57679 14.8092 6.57679 14.6154V8.03842C6.57679 7.77737 6.43748 7.53615 6.2114 7.40556C5.98531 7.27497 5.70672 7.27497 5.48062 7.40556C5.25454 7.53616 5.11523 7.77738 5.11523 8.03842V14.6154C5.11523 14.8092 5.19217 14.9951 5.32933 15.1321C5.46635 15.2693 5.65215 15.3462 5.846 15.3462Z" fill="white"/>
<path d="M10.2308 15.3462C10.4246 15.3462 10.6104 15.2693 10.7475 15.1321C10.8846 14.9951 10.9616 14.8092 10.9616 14.6154V8.03842C10.9616 7.77737 10.8222 7.53615 10.5962 7.40556C10.3701 7.27497 10.0915 7.27497 9.86539 7.40556C9.6393 7.53616 9.5 7.77738 9.5 8.03842V14.6154C9.5 14.8092 9.57693 14.9951 9.7141 15.1321C9.85112 15.2693 10.0369 15.3462 10.2308 15.3462Z" fill="white"/>
</svg>
