<svg width="25" height="25" viewBox="0 0 25 25" fill="none" xmlns="http://www.w3.org/2000/svg">
<g id="Group 125">
<path id="Rectangle 86" d="M0 5C0 2.23858 2.23858 0 5 0H20C22.7614 0 25 2.23858 25 5V20C25 22.7614 22.7614 25 20 25H5C2.23858 25 0 22.7614 0 20V5Z" fill="#0D0C0C"/>
<g id="Group 106">
<path id="Vector" d="M15.9196 7.4375H9.0803C8.82534 7.43742 8.57859 7.52673 8.38376 7.68965C8.18884 7.85266 8.05836 8.07868 8.01545 8.32789C7.97246 8.57703 8.01987 8.83324 8.14907 9.05114L10.6869 13.3295C10.7195 13.3841 10.7366 13.4463 10.7366 13.5098V16.4916C10.7366 16.8627 10.9303 17.2074 11.2486 17.4025C11.5669 17.5977 11.9645 17.6154 12.2992 17.4496L13.667 16.7714C13.8469 16.683 13.9981 16.5465 14.1036 16.3773C14.209 16.208 14.2646 16.0128 14.2639 15.8138V13.51C14.2639 13.4463 14.2811 13.3838 14.3139 13.329L16.8509 9.05123C16.9801 8.83333 17.0275 8.57712 16.9846 8.32798C16.9416 8.07877 16.8112 7.85274 16.6162 7.68974C16.4214 7.52681 16.1746 7.43751 15.9197 7.43759L15.9196 7.4375ZM16.2302 8.6892L13.6932 12.9662C13.5952 13.1309 13.5435 13.3185 13.5435 13.5098V15.8136C13.5438 15.8799 13.5253 15.9449 13.4902 16.0014C13.4551 16.0578 13.4047 16.1033 13.3448 16.1327L11.9769 16.8109C11.8653 16.8662 11.7328 16.8602 11.6266 16.7951C11.5206 16.73 11.456 16.6151 11.4561 16.4914V13.5096C11.4561 13.3186 11.4046 13.1311 11.3067 12.9667L8.76927 8.6889C8.7262 8.61624 8.71037 8.53075 8.72475 8.44766C8.73914 8.36456 8.78277 8.28911 8.84785 8.23485C8.91285 8.18051 8.99529 8.15088 9.0803 8.15104H15.9196C16.0046 8.15096 16.0869 8.18067 16.1519 8.23501C16.2169 8.28934 16.2604 8.36471 16.2748 8.44773C16.2891 8.53083 16.2733 8.61624 16.2302 8.68889L16.2302 8.6892Z" fill="#7D7C7C"/>
</g>
</g>
</svg>
