<svg width="19" height="19" viewBox="0 0 19 19" fill="none" xmlns="http://www.w3.org/2000/svg">
<path d="M12.9624 10.1881C14.1085 9.16309 14.7883 7.71581 14.8453 6.17919C14.9023 4.64263 14.3318 3.1488 13.2648 2.04148C12.1979 0.934388 10.7265 0.308823 9.18878 0.308823C7.65109 0.308823 6.17967 0.934444 5.11273 2.04148C4.04579 3.1488 3.47525 4.64257 3.53225 6.17919C3.58928 7.71576 4.26906 9.16309 5.41518 10.1881C3.83431 10.7418 2.46441 11.7723 1.49445 13.1378C0.524485 14.503 0.00241466 16.1359 0 17.8109C0 18.1569 0.184699 18.4766 0.484335 18.6498C0.783972 18.8226 1.15314 18.8226 1.45278 18.6498C1.75264 18.4767 1.93712 18.1569 1.93712 17.8109C1.93887 16.18 2.5875 14.6165 3.74064 13.4633C4.89378 12.3102 6.45735 11.6615 8.08803 11.6598H10.3145C11.9454 11.6615 13.5089 12.3102 14.6621 13.4633C15.8152 14.6165 16.4639 16.18 16.4656 17.8109C16.4656 18.1569 16.6501 18.4766 16.9497 18.6498C17.2494 18.8226 17.6187 18.8226 17.9184 18.6498C18.218 18.4767 18.4025 18.1569 18.4025 17.8109C18.3986 16.1329 17.8728 14.4978 16.8979 13.1321C15.9231 11.7664 14.5478 10.7374 12.9623 10.1881H12.9624ZM9.18884 2.29502C10.1713 2.29502 11.1134 2.68525 11.8082 3.37993C12.5031 4.07462 12.8933 5.01696 12.8933 5.99944C12.8933 6.98193 12.5031 7.92403 11.8082 8.61878C11.1135 9.31347 10.1714 9.70369 9.18884 9.70369C8.2063 9.70369 7.26424 9.31346 6.56949 8.61878C5.87458 7.92409 5.48436 6.98198 5.48436 5.99944C5.48436 5.0169 5.87459 4.07462 6.56949 3.37993C7.26419 2.68524 8.2063 2.29502 9.18884 2.29502Z" fill="white"/>
</svg>
