<svg width="21" height="21" viewBox="0 0 21 21" fill="none" xmlns="http://www.w3.org/2000/svg">
<path d="M1.37189 6.28405C1.41691 5.30031 1.57094 4.66586 1.77924 4.12732L1.78205 4.11988C1.98847 3.57185 2.31184 3.0754 2.72965 2.66507L2.73551 2.65931L2.74126 2.65345C3.15194 2.2351 3.64857 1.91205 4.19611 1.70617L4.20556 1.70256C4.74288 1.4936 5.37609 1.34014 6.36064 1.29513M1.37189 6.28405C1.32456 7.33511 1.3125 7.66093 1.3125 10.3861C1.3125 13.1119 1.3239 13.437 1.37186 14.4883M1.37189 6.28405V6.54917M6.36064 1.29513C7.41196 1.24717 7.73766 1.23577 10.4629 1.23577C13.188 1.23577 13.5136 1.24782 14.5646 1.29514M6.36064 1.29513H6.62645M1.37186 14.4883C1.41687 15.4729 1.57033 16.1061 1.77929 16.6434L1.7829 16.6529M1.37186 14.4883L1.38798 14.5732M1.37186 14.4883V14.2225M1.37189 6.54917C1.37557 6.46494 1.37953 6.37713 1.38378 6.28376C1.43311 5.20742 1.61608 4.57855 1.79049 4.1325C2.01621 3.54997 2.30214 3.11041 2.73896 2.67177C3.15417 2.24584 3.65893 1.91762 4.21665 1.71087C4.66072 1.53863 5.28794 1.35621 6.36021 1.30706C6.45388 1.3028 6.54196 1.29883 6.62645 1.29513M1.37189 6.54917C1.33294 7.43989 1.32456 7.93124 1.32456 10.3861C1.32456 12.8402 1.33294 13.3322 1.37186 14.2225M1.37189 6.54917L1.37186 14.2225M1.7829 16.6529C1.98877 17.2004 2.31183 17.697 2.73018 18.1077L2.73603 18.1135L2.74177 18.1192C3.15213 18.5371 3.6486 18.8605 4.19662 19.0669L4.20481 19.07C4.74262 19.2786 5.37613 19.4321 6.36064 19.4771M1.7829 16.6529L1.77056 16.5878M1.77056 16.5878L1.38798 14.5732M1.77056 16.5878C1.60807 16.1586 1.44076 15.5596 1.38798 14.5732M1.77056 16.5878C1.77626 16.6029 1.78195 16.6178 1.78764 16.6324C1.99369 17.1879 2.32019 17.6909 2.74365 18.1052C3.15784 18.5286 3.66063 18.855 4.21595 19.0611C4.66161 19.2347 5.28956 19.4161 6.36049 19.4652C7.44124 19.5144 7.77514 19.5244 10.4629 19.5244C13.1505 19.5244 13.4847 19.5144 14.5655 19.4652C15.6378 19.416 16.265 19.2336 16.709 19.0614C17.2647 18.8554 17.7677 18.5288 18.182 18.1052C18.6054 17.691 18.9318 17.1883 19.1378 16.633C19.3114 16.1873 19.4928 15.5594 19.5419 14.4885C19.5911 13.4077 19.6011 13.0731 19.6011 10.3861C19.6011 7.69908 19.5911 7.36423 19.5419 6.28348C19.4924 5.20562 19.3084 4.57747 19.1354 4.133C18.9091 3.54901 18.6223 3.10734 18.1813 2.66639C17.7413 2.2272 17.3008 1.94016 16.7164 1.71372C16.2703 1.53933 15.6417 1.35639 14.5655 1.30706C14.4718 1.3028 14.3839 1.29884 14.2994 1.29514M1.38798 14.5732C1.38649 14.5454 1.3851 14.5173 1.38379 14.4888C1.37953 14.3951 1.37556 14.307 1.37186 14.2225M14.2994 1.29514H14.5646M14.2994 1.29514L6.62645 1.29513M14.2994 1.29514C13.4091 1.25622 12.9172 1.24783 10.4629 1.24783C8.00872 1.24783 7.51668 1.25621 6.62645 1.29513M14.5646 1.29514C15.5486 1.34015 16.1831 1.49416 16.7216 1.70249L16.729 1.70532C17.2771 1.91174 17.7735 2.23511 18.1838 2.65292L18.1896 2.65872L18.1954 2.66442C18.6132 3.07479 18.9366 3.57138 19.1428 4.11956L19.1464 4.12883C19.3554 4.66615 19.5088 5.29936 19.5539 6.28391M19.5539 14.4883C19.5088 15.4728 19.3554 16.1063 19.1468 16.6441L19.1436 16.6523C18.9372 17.2004 18.6138 17.6968 18.1961 18.1071L18.1902 18.1129L18.1844 18.1188C17.7737 18.5371 17.2771 18.8601 16.7296 19.066L16.7201 19.0697C16.1828 19.2786 15.5496 19.4321 14.565 19.4771M8.83538 14.3151C9.35141 14.5288 9.9044 14.6388 10.4629 14.6388C11.5907 14.6388 12.6724 14.1908 13.47 13.3933C14.2675 12.5957 14.7156 11.514 14.7156 10.3861C14.7156 9.25822 14.2675 8.17651 13.47 7.37897C12.6724 6.58143 11.5907 6.13337 10.4629 6.13337C9.9044 6.13337 9.35131 6.24337 8.83538 6.45709C8.31945 6.67081 7.8506 6.98407 7.4557 7.37897C7.06081 7.77387 6.74755 8.24269 6.53382 8.75866C6.32011 9.27458 6.21011 9.82767 6.21011 10.3861C6.21011 10.9446 6.32011 11.4976 6.53382 12.0135C6.74755 12.5296 7.06081 12.9983 7.4557 13.3933C7.8506 13.7881 8.31945 14.1014 8.83538 14.3151ZM7.44623 7.36949C8.24629 6.56943 9.33139 6.11997 10.4629 6.11997C11.5943 6.11997 12.6794 6.56943 13.4794 7.36949C14.2795 8.16955 14.7289 9.25466 14.7289 10.3861C14.7289 11.5175 14.2795 12.6026 13.4794 13.4027C12.6794 14.2028 11.5943 14.6522 10.4629 14.6522C9.33139 14.6522 8.24629 14.2028 7.44623 13.4027C6.64617 12.6026 6.19671 11.5175 6.19671 10.3861C6.19671 9.25466 6.64617 8.16955 7.44623 7.36949ZM17.1312 5.12671C17.1312 5.45056 17.0026 5.76114 16.7736 5.99013C16.5446 6.21912 16.234 6.34777 15.9102 6.34777C15.5863 6.34777 15.2758 6.21912 15.0468 5.99013C14.8178 5.76114 14.6891 5.45056 14.6891 5.12671C14.6891 4.80287 14.8178 4.49229 15.0468 4.26331C15.2758 4.03431 15.5863 3.90567 15.9102 3.90567C16.234 3.90567 16.5446 4.03431 16.7736 4.26331C17.0026 4.49229 17.1312 4.80287 17.1312 5.12671Z" stroke="black" stroke-width="1.6626" stroke-linejoin="round"/>
</svg>
