<svg width="26" height="19" viewBox="0 0 26 19" fill="none" xmlns="http://www.w3.org/2000/svg">
<path d="M4.17627 0.844917C2.42414 0.844917 0.986328 2.28273 0.986328 4.03486V15.0543C0.986328 16.8064 2.42414 18.2442 4.17627 18.2442H22.7353C24.4875 18.2442 25.9253 16.8064 25.9253 15.0543V4.03486C25.9253 2.28273 24.4875 0.844917 22.7353 0.844917H4.17627ZM4.17627 2.58493H22.7353C22.8779 2.58493 23.0143 2.60334 23.1431 2.63935L13.7279 11.4746C13.625 11.5713 13.2872 11.5713 13.1842 11.4746L3.769 2.63883C3.89785 2.60282 4.03418 2.58442 4.17679 2.58442L4.17627 2.58493ZM2.72634 4.05309L11.9878 12.7433C12.8189 13.5237 14.0928 13.5237 14.9238 12.7433L24.1852 4.05257V15.0539C24.1852 15.8721 23.5535 16.5038 22.7353 16.5038H4.17622C3.35799 16.5038 2.72629 15.8721 2.72629 15.0539V4.05257L2.72634 4.05309Z" fill="black"/>
</svg>
