<svg width="23" height="21" viewBox="0 0 23 21" fill="none" xmlns="http://www.w3.org/2000/svg">
<path d="M21.4534 14.4898L18.8494 12.0925C18.3351 11.6014 17.7137 11.3438 17.055 11.3438C16.4007 11.3438 15.7749 11.6014 15.2453 12.0865L13.8886 13.3344C13.8207 13.3022 13.7551 13.272 13.6938 13.2439C13.5341 13.1714 13.3809 13.0989 13.2496 13.0225C11.8732 12.2194 10.6193 11.1666 9.41358 9.80797C8.88183 9.19003 8.51419 8.67073 8.24725 8.15946C8.59081 7.86357 8.91469 7.56166 9.22103 7.27181C9.35014 7.15104 9.48581 7.02624 9.6171 6.90547C10.1598 6.40631 10.4465 5.82459 10.4465 5.22476C10.4465 4.62092 10.1598 4.0392 9.6171 3.54405L8.32386 2.35448C8.17724 2.21962 8.03719 2.08878 7.89279 1.94991L7.88622 1.94387C7.60394 1.67616 7.29978 1.39237 6.99559 1.1327C6.47917 0.667727 5.86208 0.422157 5.20997 0.422157C4.56223 0.422157 3.93861 0.669737 3.40687 1.13671L1.77662 2.63626C1.11795 3.23609 0.745945 3.96875 0.669359 4.81415C0.581829 5.82058 0.780962 6.88335 1.29522 8.15345C2.06984 10.0898 3.23621 11.8812 4.96493 13.7914C7.05909 16.0941 9.58853 17.9155 12.4795 19.2059L12.4817 19.208C13.5999 19.6951 15.0967 20.2667 16.7532 20.3653H16.7729C16.8692 20.3694 16.9677 20.3734 17.0727 20.3734C18.2609 20.3734 19.2194 19.995 20.0006 19.216C20.0137 19.2019 20.0312 19.1858 20.0487 19.1637C20.2676 18.9242 20.517 18.6987 20.784 18.4632L20.8453 18.4089C21.0947 18.1895 21.2916 18.0083 21.4667 17.8412C21.9897 17.3401 22.2654 16.7583 22.2632 16.1565C22.2632 15.5527 21.9831 14.977 21.4536 14.4899L21.4534 14.4898ZM2.47482 4.95522C2.51859 4.49831 2.70459 4.134 3.0569 3.80992L4.66966 2.32645C4.84691 2.16945 5.03291 2.08491 5.20577 2.08491C5.41584 2.08491 5.60184 2.21776 5.72003 2.32847L5.73315 2.34054C5.97824 2.54988 6.21456 2.77129 6.46405 3.00478L6.57784 3.11146C6.65224 3.18191 6.72883 3.25236 6.80542 3.32482C6.87982 3.39326 6.95422 3.46371 7.02862 3.53416L8.32627 4.72778C8.46194 4.85257 8.62387 5.04178 8.62387 5.23099C8.62387 5.4202 8.46194 5.60939 8.32627 5.7342C8.25843 5.7966 8.1906 5.859 8.12276 5.92341C8.05712 5.98581 7.98928 6.0482 7.92144 6.1106L7.82954 6.19514C7.4641 6.53531 7.11617 6.85735 6.74196 7.16531L6.70476 7.19953C6.138 7.72085 6.33275 8.26028 6.39622 8.43743C6.40059 8.45152 6.40497 8.46158 6.40935 8.47366L6.4181 8.49379C6.7726 9.27477 7.25839 10.0034 7.99365 10.8548L7.99583 10.8568C9.31973 12.3584 10.7159 13.5279 12.2673 14.4356C12.438 14.5383 12.6109 14.6188 12.7794 14.6953C12.81 14.7094 12.8428 14.7235 12.8735 14.7396L12.8757 14.7416C13.0354 14.814 13.1886 14.8865 13.3199 14.963L13.3593 14.9831C13.3724 14.9892 13.3855 14.9972 13.3987 15.0033C13.5912 15.0938 13.7904 15.1401 13.9895 15.1401C14.3265 15.1401 14.6329 15.0153 14.8998 14.7678L16.5235 13.2742C16.6504 13.1575 16.843 13.0206 17.0531 13.0206C17.2675 13.0206 17.4535 13.1736 17.5476 13.2662L17.552 13.2702L20.1735 15.6776C20.5499 16.0238 20.5433 16.3297 20.156 16.7001L20.1516 16.7041C19.9678 16.8852 19.7731 17.0584 19.5892 17.2214L19.5367 17.2677C19.2435 17.5294 18.9415 17.7991 18.6592 18.109C18.2303 18.5317 17.7423 18.7189 17.0771 18.7189C17.0158 18.7189 16.9458 18.7149 16.8758 18.7109C15.5169 18.6304 14.2368 18.1372 13.2717 17.7145C10.6152 16.531 8.28921 14.8563 6.36134 12.7347C4.77047 10.9734 3.70262 9.33703 2.99581 7.58366C2.57787 6.54908 2.40937 5.71174 2.47499 4.9549L2.47482 4.95522Z" fill="black"/>
</svg>
