<svg width="15" height="19" viewBox="0 0 15 19" fill="none" xmlns="http://www.w3.org/2000/svg">
    <mask id="v1au0mgrta" maskUnits="userSpaceOnUse" x="0" y="0" width="15" height="19" fill="#000">
        <path fill="#fff" d="M0 0h15v19H0z"/>
        <path fill-rule="evenodd" clip-rule="evenodd" d="M11.696 6.622a2.81 2.81 0 0 1-1.87-.712L6.05 7.937a2.811 2.811 0 0 1 .294 2.92l3.597 2.412a2.81 2.81 0 1 1-.713.851l-3.55-2.382a2.81 2.81 0 1 1-.357-4.473l3.913-2.1a2.81 2.81 0 1 1 2.463 1.457zm0-4.713a1.902 1.902 0 1 0 0 3.804 1.902 1.902 0 0 0 0-3.804zM3.81 7.736a1.902 1.902 0 1 0 0 3.803 1.902 1.902 0 0 0 0-3.803zm6.54 6.384a1.903 1.903 0 0 1 2.69 2.69 1.902 1.902 0 0 1-2.69-2.69z"/>
    </mask>
    <path fill-rule="evenodd" clip-rule="evenodd" d="M11.696 6.622a2.81 2.81 0 0 1-1.87-.712L6.05 7.937a2.811 2.811 0 0 1 .294 2.92l3.597 2.412a2.81 2.81 0 1 1-.713.851l-3.55-2.382a2.81 2.81 0 1 1-.357-4.473l3.913-2.1a2.81 2.81 0 1 1 2.463 1.457zm0-4.713a1.902 1.902 0 1 0 0 3.804 1.902 1.902 0 0 0 0-3.804zM3.81 7.736a1.902 1.902 0 1 0 0 3.803 1.902 1.902 0 0 0 0-3.803zm6.54 6.384a1.903 1.903 0 0 1 2.69 2.69 1.902 1.902 0 0 1-2.69-2.69z" fill="#000"/>
    <path d="m9.826 5.91.2-.224-.157-.14-.185.1.142.264zm1.87.712v.3-.3zM6.049 7.937l-.142-.265-.31.166.213.28.24-.181zm.573 1.7h.3-.3zm-.28 1.22-.27-.13-.113.234.216.145.168-.25zm3.598 2.412-.167.25.182.122.172-.137-.187-.235zm3.743.208-.212.212.212-.212zm.824 1.987h.3-.3zm-.825 1.987-.212-.212.212.212zm-1.986.824v.3-.3zm-1.988-.823-.212.212.212-.212zm-.481-3.332.264.144.13-.24-.227-.153-.167.25zm-3.55-2.382.166-.249-.192-.13-.174.155.2.224zm-1.866.71v.3-.3zm-1.988-.823-.212.212.212-.212zM1 9.637h.3H1zm.823-1.987.212.212-.212-.212zm3.496-.385-.16.253.147.095.155-.083-.142-.265zm3.914-2.1.142.265.267-.144-.146-.265-.263.144zm.475-3.342-.212-.212.212.212zm3.975 0-.212.213.212-.213zm.824 1.988h.3-.3zm-.825 1.987.213.212-.213-.212zm-1.986-3.889v.3h.723l-.51-.512-.213.212zM10.35 5.156l.212-.212-.212.212zm2.69 0 .212.212-.213-.212zm.556-1.345h.3-.3zm-.557-1.344.212-.212-.212.212zm-1.344-.558v-.3h-.724l.511.512.213-.212zm-9.23 6.384.212.212-.212-.212zm1.345-.557v.3h.728l-.517-.513-.211.213zM1.909 9.637h-.3.3zm.557 1.345-.212.212.212-.212zm2.69 0 .212.212-.212-.212zm.557-1.345h.3-.3zm-.558-1.344.212-.212-.212.212zm-1.344-.557v-.3l-.729-.001.518.513.211-.212zm7.885 5.827v.3h.724l-.512-.512-.212.212zm-1.345.557-.212-.212.212.212zm1.345-.557v-.3l-.725-.001.513.513.212-.212zm1.344.557.212-.212-.212.212zm.557 1.344h.3-.3zm-3.246 1.345.212-.212-.212.212zM9.627 6.134a3.11 3.11 0 0 0 2.069.788v-.6a2.51 2.51 0 0 1-1.67-.636l-.4.448zM6.19 8.201l3.777-2.027-.284-.528-3.777 2.026.284.529zm.73 1.436c0-.683-.224-1.344-.633-1.882l-.478.363c.33.435.512.968.512 1.52h.6zm-.308 1.35c.2-.417.308-.878.309-1.35h-.6c0 .38-.087.752-.25 1.09l.54.26zm-.438.119 3.598 2.412.334-.498-3.597-2.413-.335.499zm3.952 2.398a2.51 2.51 0 0 1 1.569-.55v-.6a3.11 3.11 0 0 0-1.944.681l.375.469zm1.569-.55a2.51 2.51 0 0 1 1.775.735l.425-.424a3.11 3.11 0 0 0-2.2-.912v.6zm1.775.735c.471.47.736 1.11.736 1.775h.6a3.11 3.11 0 0 0-.912-2.2l-.424.425zm.736 1.775c-.001.666-.266 1.304-.737 1.775l.425.424a3.114 3.114 0 0 0 .912-2.198l-.6-.001zm-.737 1.775c-.47.47-1.109.735-1.775.736l.001.6c.825 0 1.616-.329 2.199-.912l-.425-.424zm-1.774.736a2.511 2.511 0 0 1-1.776-.735l-.424.424a3.11 3.11 0 0 0 2.2.911v-.6zM9.92 17.24a2.51 2.51 0 0 1-.735-1.776h-.6c0 .825.328 1.617.911 2.2l.424-.424zm-.735-1.776c0-.423.107-.835.306-1.2l-.527-.287a3.11 3.11 0 0 0-.38 1.487h.6zm.21-1.593-3.552-2.382-.334.498 3.55 2.382.335-.498zM3.81 12.748c.763 0 1.497-.281 2.064-.785l-.398-.449a2.514 2.514 0 0 1-1.666.634v.6zm-2.2-.91a3.11 3.11 0 0 0 2.2.91v-.6a2.51 2.51 0 0 1-1.775-.735l-.425.424zM.7 9.637c0 .825.328 1.616.911 2.2l.425-.425A2.511 2.511 0 0 1 1.3 9.637H.7zm.911-2.2a3.11 3.11 0 0 0-.911 2.2h.6c0-.666.264-1.305.735-1.776l-.424-.424zm2.2-.912a3.11 3.11 0 0 0-2.2.912l.424.424a2.51 2.51 0 0 1 1.776-.736v-.6zm1.67.486a3.111 3.111 0 0 0-1.67-.486v.6c.48 0 .948.138 1.347.392l.322-.506zm3.61-2.11L5.177 7l.284.529 3.914-2.1L9.09 4.9zM8.585 3.81c0 .529.134 1.044.385 1.499l.526-.29a2.51 2.51 0 0 1-.311-1.209h-.6zm.911-2.2a3.11 3.11 0 0 0-.911 2.2h.6c0-.666.264-1.305.735-1.775l-.424-.425zm2.2-.911c-.825 0-1.617.328-2.2.911l.424.425c.471-.471 1.11-.736 1.776-.736V.7zm2.2.911a3.11 3.11 0 0 0-2.2-.911v.6a2.51 2.51 0 0 1 1.775.736l.424-.425zm.91 2.2a3.11 3.11 0 0 0-.91-2.2l-.425.425c.471.47.736 1.109.736 1.775h.6zm-.911 2.199a3.115 3.115 0 0 0 .912-2.199h-.6c-.001.665-.266 1.304-.737 1.775l.425.424zm-2.199.912a3.114 3.114 0 0 0 2.199-.912l-.425-.424c-.47.47-1.109.735-1.775.736l.001.6zm-1.133-4.244c.3-.3.708-.469 1.133-.469v-.6c-.584 0-1.144.232-1.557.645l.424.424zm-.469 1.133c0-.425.169-.832.47-1.133l-.425-.424a2.202 2.202 0 0 0-.645 1.557h.6zm.47 1.133c-.301-.3-.47-.708-.47-1.133h-.6c0 .584.232 1.144.645 1.557l.424-.424zm1.132.469c-.425 0-.832-.17-1.133-.47l-.424.425c.413.413.973.645 1.557.645v-.6zm1.132-.47c-.3.3-.707.47-1.132.47v.6c.584 0 1.144-.232 1.557-.645l-.425-.424zm.47-1.132c0 .425-.17.832-.47 1.133l.425.424c.412-.413.644-.973.644-1.557h-.6zm-.47-1.132c.3.3.469.708.47 1.132h.6c-.001-.584-.233-1.144-.646-1.556l-.424.424zm-1.133-.47c.425 0 .832.17 1.133.47l.424-.424a2.203 2.203 0 0 0-1.556-.646v.6zm.213-.512-.425.424.425-.424zm-9.23 6.808c.3-.3.708-.47 1.133-.47v-.6c-.584 0-1.144.233-1.557.645l.424.425zM2.21 9.637c0-.425.169-.832.47-1.132l-.425-.425a2.202 2.202 0 0 0-.645 1.557h.6zm.47 1.133c-.301-.3-.47-.708-.47-1.133h-.6c0 .584.232 1.144.645 1.557l.424-.424zm1.132.47c-.425 0-.832-.17-1.133-.47l-.424.424c.413.413.973.645 1.557.645v-.6zm1.132-.47c-.3.3-.707.47-1.132.47v.6c.584 0 1.144-.233 1.557-.646l-.425-.424zm.47-1.133c0 .425-.17.832-.47 1.133l.425.424c.413-.413.645-.973.645-1.557h-.6zm-.47-1.132c.3.3.47.708.47 1.133l.6-.001c-.001-.584-.233-1.143-.646-1.556l-.424.424zm-1.132-.47c.424.001.832.17 1.132.47l.424-.424a2.204 2.204 0 0 0-1.556-.645v.6zm.211-.512-.422.425.422-.425zm7.674 5.74c-.584 0-1.144.232-1.557.645l.424.424c.3-.3.708-.47 1.133-.47v-.6zm-.212.512.424-.425-.424.425zm1.768.133a2.203 2.203 0 0 0-1.556-.645v.6c.424 0 .831.169 1.132.47l.424-.425zm.645 1.556c0-.584-.232-1.143-.645-1.556l-.424.424c.3.3.469.708.47 1.133l.6-.001zm-.644 1.557c.412-.413.644-.973.644-1.557h-.6c0 .425-.168.833-.469 1.133l.425.424zm-1.557.645c.584 0 1.144-.232 1.557-.645l-.425-.424c-.3.3-.707.469-1.132.469v.6zm-1.557-.645c.413.413.973.645 1.557.645v-.6c-.425 0-.832-.169-1.133-.47l-.424.425zm-.645-1.557c0 .584.232 1.144.645 1.557l.424-.424c-.3-.3-.469-.708-.469-1.133h-.6zm.645-1.556a2.201 2.201 0 0 0-.645 1.556h.6c0-.425.169-.832.47-1.132l-.425-.425z" fill="#000" mask="url(#v1au0mgrta)"/>
</svg>
