<svg width="15" height="19" viewBox="0 0 15 19" fill="none" xmlns="http://www.w3.org/2000/svg">
    <mask id="sh2usz2iqa" maskUnits="userSpaceOnUse" x="0" y="-.357" width="15" height="19" fill="#000">
        <path fill="#fff" d="M0-.357h15v19H0z"/>
        <path fill-rule="evenodd" clip-rule="evenodd" d="M11.695 6.265a2.81 2.81 0 0 1-1.869-.712L6.05 7.58a2.811 2.811 0 0 1 .294 2.919l3.597 2.413a2.81 2.81 0 1 1-.713.85l-3.55-2.381a2.81 2.81 0 1 1-.357-4.473l3.913-2.1a2.81 2.81 0 1 1 2.462 1.457zm0-4.713a1.902 1.902 0 1 0 0 3.804 1.902 1.902 0 0 0 0-3.804zM3.811 7.378a1.902 1.902 0 1 0 0 3.804 1.902 1.902 0 0 0 0-3.804zm6.54 6.384a1.904 1.904 0 0 1 2.69 2.69 1.902 1.902 0 1 1-2.69-2.69z"/>
    </mask>
    <path fill-rule="evenodd" clip-rule="evenodd" d="M11.695 6.265a2.81 2.81 0 0 1-1.869-.712L6.05 7.58a2.811 2.811 0 0 1 .294 2.919l3.597 2.413a2.81 2.81 0 1 1-.713.85l-3.55-2.381a2.81 2.81 0 1 1-.357-4.473l3.913-2.1a2.81 2.81 0 1 1 2.462 1.457zm0-4.713a1.902 1.902 0 1 0 0 3.804 1.902 1.902 0 0 0 0-3.804zM3.811 7.378a1.902 1.902 0 1 0 0 3.804 1.902 1.902 0 0 0 0-3.804zm6.54 6.384a1.904 1.904 0 0 1 2.69 2.69 1.902 1.902 0 1 1-2.69-2.69z" fill="#fff"/>
    <path d="m9.826 5.553.2-.224-.157-.14-.184.1.141.264zm1.87.712v.3-.3zM6.048 7.58l-.141-.265-.31.166.212.28.24-.181zm.573 1.7h.3-.3zm-.28 1.219-.27-.13-.113.234.217.145.167-.25zm3.598 2.413-.167.249.182.122.172-.137-.187-.234zm3.743.207-.212.212.212-.212zm.823 1.988h.3-.3zm-.824 1.986-.212-.212.212.212zm-1.987.825v.3-.3zm-1.987-.824.212-.212-.212.212zm-.481-3.332.263.144.131-.24-.227-.153-.167.25zm-3.55-2.381.167-.25-.193-.129-.174.154.2.225zm-1.866.71v.3-.3zm-1.988-.823-.212.212.212-.212zM1 9.28h.3H1zm.823-1.988.212.213-.212-.213zm3.497-.384-.161.253.148.094.154-.083-.141-.264zm3.913-2.1.142.265.267-.143-.146-.266-.263.145zm.475-3.342-.212-.212.212.212zm3.975 0-.212.212.212-.212zm.823 1.988h.3-.3zm-.824 1.986.212.212-.212-.212zm-1.987-3.888v.3h.724l-.511-.512-.213.212zm-1.344 3.246.212-.212-.212.212zm2.69 0 .211.212-.212-.212zm.556-1.344h.3-.3zm-.557-1.345.212-.212-.213.212zm-1.345-.557v-.3h-.724l.512.512.212-.212zM2.466 7.935l.212.212-.212-.212zm1.345-.557v.3h.728l-.517-.513-.211.213zM1.909 9.28h-.3.3zm.557 1.345-.212.212.212-.212zm2.69 0 .212.212-.212-.212zm.557-1.345h.3-.3zm-.558-1.344.212-.212-.212.212zm-1.344-.558v-.3h-.729l.518.513.211-.213zm7.884 5.827v.3h.725l-.512-.512-.213.212zm-1.344.557-.213-.212.213.212zm1.344-.557v-.3h-.725l.513.512.212-.212zm1.345.558.212-.212-.213.212zm.557 1.344h.3-.3zm-.557 1.345.212.212-.212-.213zM9.627 5.776a3.11 3.11 0 0 0 2.068.788v-.6a2.51 2.51 0 0 1-1.67-.636l-.398.448zM6.19 7.844l3.777-2.027-.283-.528-3.777 2.026.283.529zm.73 1.436c0-.683-.224-1.344-.633-1.882l-.478.363c.33.434.512.967.512 1.519h.6zm-.308 1.349c.2-.417.308-.877.309-1.349h-.6c0 .38-.087.752-.25 1.088l.54.261zm-.437.119 3.597 2.413.334-.499L6.51 10.25l-.334.498zm3.951 2.398c.443-.355.996-.55 1.568-.55v-.6a3.11 3.11 0 0 0-1.943.681l.375.469zm1.568-.55a2.51 2.51 0 0 1 1.776.735l.424-.424a3.11 3.11 0 0 0-2.2-.911v.6zm1.776.735c.47.471.735 1.11.735 1.776h.6a3.11 3.11 0 0 0-.91-2.2l-.425.424zm.735 1.775c0 .666-.265 1.304-.736 1.775l.424.425a3.114 3.114 0 0 0 .912-2.199h-.6zm-.736 1.775c-.47.471-1.11.736-1.775.737v.6c.825-.001 1.616-.33 2.2-.912l-.425-.425zm-1.775.737a2.511 2.511 0 0 1-1.775-.736l-.424.424a3.11 3.11 0 0 0 2.2.912v-.6zm-1.775-.736a2.51 2.51 0 0 1-.736-1.775h-.6c0 .825.328 1.616.912 2.2l.424-.425zm-.736-1.775c0-.424.107-.836.306-1.201l-.527-.287a3.11 3.11 0 0 0-.379 1.488h.6zm.21-1.594-3.55-2.381-.335.498 3.55 2.381.335-.498zm-5.583-1.122c.763-.001 1.497-.282 2.065-.786l-.399-.449a2.514 2.514 0 0 1-1.666.635v.6zm-2.2-.911a3.11 3.11 0 0 0 2.2.91v-.6a2.51 2.51 0 0 1-1.775-.734l-.425.424zM.7 9.28c0 .825.328 1.616.911 2.2l.425-.425A2.511 2.511 0 0 1 1.3 9.28H.7zm.911-2.2A3.11 3.11 0 0 0 .7 9.28h.6c0-.666.264-1.305.735-1.775l-.424-.425zm2.2-.911a3.11 3.11 0 0 0-2.2.911l.424.424a2.51 2.51 0 0 1 1.776-.735v-.6zm1.67.486a3.111 3.111 0 0 0-1.67-.486v.6c.481 0 .948.138 1.348.392l.322-.506zm3.61-2.11L5.178 6.643l.283.528 3.914-2.1-.284-.528zm-.507-1.091c0 .529.135 1.044.386 1.5l.525-.29a2.51 2.51 0 0 1-.31-1.21h-.6zm.912-2.2a3.11 3.11 0 0 0-.912 2.2h.6c0-.666.265-1.305.736-1.776l-.424-.424zm2.2-.911c-.826 0-1.617.327-2.2.91l.424.425c.47-.47 1.11-.735 1.775-.735v-.6zm2.2.91a3.11 3.11 0 0 0-2.2-.91v.6a2.51 2.51 0 0 1 1.775.735l.424-.424zm.91 2.2a3.11 3.11 0 0 0-.91-2.2l-.425.425c.47.471.735 1.11.735 1.776h.6zm-.912 2.2a3.115 3.115 0 0 0 .912-2.199h-.6c0 .665-.265 1.303-.736 1.774l.424.424zm-2.198.912a3.114 3.114 0 0 0 2.198-.913l-.424-.424c-.47.471-1.11.736-1.775.737v.6zM10.563 2.32c.3-.3.708-.47 1.132-.47v-.6c-.584 0-1.144.233-1.556.646l.424.424zm-.47 1.133c0-.425.17-.833.47-1.133l-.425-.424a2.202 2.202 0 0 0-.644 1.557h.6zm.47 1.132c-.3-.3-.47-.708-.47-1.132h-.6c0 .583.233 1.144.646 1.556l.424-.424zm1.132.47c-.424 0-.832-.17-1.132-.47l-.425.424c.413.413.973.645 1.557.645v-.6zm1.133-.47c-.3.3-.708.47-1.133.47v.6c.584 0 1.144-.233 1.557-.646l-.424-.424zm.47-1.132c0 .424-.17.832-.47 1.132l.424.424c.413-.412.645-.973.645-1.556h-.6zm-.47-1.132c.3.3.469.707.47 1.132h.6c-.002-.584-.234-1.144-.646-1.557l-.425.425zm-1.133-.47c.425 0 .832.17 1.132.47l.425-.425a2.203 2.203 0 0 0-1.556-.645v.6zm.213-.512-.425.424.425-.424zm-9.23 6.807c.3-.3.708-.469 1.133-.469v-.6c-.584 0-1.144.232-1.557.645l.424.424zM2.21 9.28c0-.425.169-.832.47-1.133l-.425-.424A2.202 2.202 0 0 0 1.61 9.28h.6zm.47 1.132c-.301-.3-.47-.707-.47-1.132h-.6c0 .584.232 1.144.645 1.557l.424-.425zm1.132.47c-.425 0-.832-.17-1.133-.47l-.424.425c.413.413.973.645 1.557.645v-.6zm1.132-.47c-.3.3-.707.47-1.132.47v.6c.584 0 1.144-.232 1.557-.645l-.425-.424zm.47-1.132c0 .425-.17.832-.47 1.133l.425.424c.413-.413.645-.973.645-1.557h-.6zm-.47-1.132c.3.3.47.707.47 1.132h.6c-.001-.584-.233-1.144-.646-1.556l-.424.424zm-1.132-.47c.424 0 .832.17 1.132.47l.424-.424a2.204 2.204 0 0 0-1.556-.646v.6zm.211-.513-.422.426.422-.426zm7.673 5.74c-.584 0-1.144.232-1.556.645l.424.424c.3-.3.708-.469 1.132-.469v-.6zm-.212.512.425-.424-.425.424zm1.769.134a2.203 2.203 0 0 0-1.556-.646v.6c.424 0 .831.17 1.131.47l.425-.424zm.645 1.555c0-.583-.233-1.143-.645-1.555l-.425.424c.3.3.47.707.47 1.132h.6zm-.645 1.558c.413-.413.645-.973.645-1.557h-.6c0 .425-.169.832-.469 1.132l.424.425zm-1.557.644c.584 0 1.144-.232 1.557-.644l-.424-.425c-.3.3-.708.47-1.133.47v.6zm-1.556-.644c.412.413.973.644 1.556.644v-.6c-.424 0-.832-.168-1.132-.469l-.425.425zm-.645-1.557c0 .584.232 1.144.645 1.557l.424-.425c-.3-.3-.47-.707-.47-1.132h-.6zm.645-1.557a2.202 2.202 0 0 0-.645 1.557h.6c0-.425.168-.832.469-1.133l-.425-.424z" fill="#fff" mask="url(#sh2usz2iqa)"/>
</svg>
