<svg width="26" height="19" viewBox="0 0 26 19" fill="none" xmlns="http://www.w3.org/2000/svg">
<path fill-rule="evenodd" clip-rule="evenodd" d="M22.3812 1.7902C23.3833 2.06391 24.1709 2.86745 24.4391 3.88997C24.9239 5.74142 24.9258 9.60667 24.9258 9.60667C24.9258 9.60667 24.9258 13.4718 24.4391 15.3233C24.1709 16.3458 23.3833 17.1494 22.3812 17.423C20.5668 17.9196 13.2876 17.9196 13.2876 17.9196C13.2876 17.9196 6.00846 17.9196 4.19395 17.423C3.19185 17.1494 2.40434 16.3458 2.13609 15.3233C1.64941 13.4718 1.64941 9.60667 1.64941 9.60667C1.64941 9.60667 1.64941 5.74142 2.13609 3.88997C2.40434 2.86745 3.19185 2.06391 4.19395 1.7902C6.00846 1.29361 13.2876 1.29361 13.2876 1.29361C13.2876 1.29361 20.5668 1.29361 22.3812 1.7902ZM17.0049 9.607L10.9577 13.1691V6.04477L17.0049 9.607Z" stroke="black" stroke-width="1.6626" stroke-linejoin="round"/>
</svg>
