<svg width="48" height="10" viewBox="0 0 48 10" fill="none" xmlns="http://www.w3.org/2000/svg">
    <path d="M2.404 9.6c.226 0 .436-.022.63-.066a2.505 2.505 0 0 0 1.013-.484 3.87 3.87 0 0 0 .416-.379l.153.5c.035.109.093.191.176.246a.552.552 0 0 0 .31.082H6.33V.038H4.348v3.318a2.506 2.506 0 0 0-.643-.389 2.245 2.245 0 0 0-.866-.148c-.422 0-.808.086-1.157.259-.35.173-.65.412-.899.717-.25.306-.442.668-.578 1.087C.068 5.302 0 5.755 0 6.244c0 .531.06 1.004.182 1.419a3.3 3.3 0 0 0 .502 1.052c.213.287.467.506.761.657.294.152.614.228.96.228zm.69-1.504A.954.954 0 0 1 2.667 8a.828.828 0 0 1-.329-.313 1.784 1.784 0 0 1-.214-.572 4.197 4.197 0 0 1-.077-.872c0-.358.032-.663.096-.916s.152-.458.265-.616c.113-.158.246-.273.4-.345a1.18 1.18 0 0 1 .505-.107c.192 0 .374.032.547.098.172.065.335.18.489.344v2.78c-.085.102-.172.19-.26.266a1.392 1.392 0 0 1-.601.307 1.732 1.732 0 0 1-.392.04zM10.298 9.6c.503 0 .961-.079 1.375-.237a3.033 3.033 0 0 0 1.064-.676c.297-.293.527-.65.69-1.068.165-.42.247-.89.247-1.413a3.78 3.78 0 0 0-.246-1.4 3.015 3.015 0 0 0-.69-1.058 3.019 3.019 0 0 0-1.065-.67 3.87 3.87 0 0 0-1.375-.234c-.507 0-.969.078-1.384.234a3.08 3.08 0 0 0-1.074.67c-.3.29-.533.643-.697 1.058a3.78 3.78 0 0 0-.247 1.4c0 .523.083.993.247 1.413.164.419.396.775.697 1.068.3.293.658.518 1.074.676.415.158.877.237 1.384.237zm0-1.454c-.469 0-.812-.159-1.03-.477-.217-.318-.325-.801-.325-1.45 0-.649.108-1.131.326-1.447.217-.316.56-.474 1.029-.474.456 0 .792.158 1.007.474.215.316.323.798.323 1.447s-.108 1.132-.323 1.45c-.215.318-.55.477-1.007.477zM16.221 9.5v-4.02c.298-.547.707-.821 1.227-.821.15 0 .273.01.371.028.098.02.183.029.256.029a.35.35 0 0 0 .204-.054c.052-.036.086-.098.103-.186l.255-1.441c-.183-.144-.426-.215-.728-.215-.358 0-.689.107-.991.322a3.225 3.225 0 0 0-.819.878l-.108-.613a1.27 1.27 0 0 0-.061-.214.337.337 0 0 0-.103-.143.434.434 0 0 0-.166-.079 1.015 1.015 0 0 0-.246-.025h-1.176V9.5h1.982zm3.839-7.211c.166 0 .323-.03.47-.092.147-.06.276-.143.387-.246.11-.104.198-.224.262-.36.064-.137.096-.284.096-.44 0-.16-.032-.31-.096-.448a1.185 1.185 0 0 0-.65-.614 1.25 1.25 0 0 0-.923 0 1.199 1.199 0 0 0-.63.614 1.092 1.092 0 0 0-.093.448c0 .156.031.303.093.44.062.136.147.256.256.36.108.103.233.185.374.246.14.061.292.092.454.092zm.985 7.21V2.946h-1.983V9.5h1.982zm2.752.102c.226 0 .431-.018.617-.054.185-.036.36-.09.524-.164.164-.074.323-.163.476-.269.154-.105.314-.227.48-.366l.14.36c.065.16.145.265.24.316.096.05.238.076.426.076h.908V5.404c0-.375-.06-.72-.18-1.037a2.345 2.345 0 0 0-.514-.818 2.334 2.334 0 0 0-.819-.538 2.9 2.9 0 0 0-1.083-.192c-.559 0-1.082.085-1.57.256-.488.17-.933.43-1.333.78l.358.613a.73.73 0 0 0 .227.244.604.604 0 0 0 .348.097.95.95 0 0 0 .397-.075c.11-.05.224-.108.342-.171.117-.063.25-.12.4-.17.148-.051.34-.076.575-.076.294 0 .52.085.68.255.16.171.24.448.24.832v.278c-.758.016-1.387.092-1.886.227-.498.135-.895.302-1.189.503-.294.2-.5.422-.62.666-.12.245-.18.483-.18.714 0 .295.048.556.142.781.093.225.226.414.4.566.172.151.382.266.629.344.247.078.522.117.825.117zm.626-1.296c-.238 0-.42-.045-.543-.135-.124-.091-.186-.248-.186-.471 0-.114.03-.22.087-.316a.733.733 0 0 1 .31-.26c.149-.075.351-.138.607-.189.256-.05.582-.084.979-.101v.91c-.197.198-.39.341-.582.43a1.588 1.588 0 0 1-.672.132zM30.475 9.5v-4.74c.14-.135.29-.242.45-.322.16-.08.33-.12.509-.12.29 0 .51.075.659.227.149.152.223.415.223.79v4.165h1.982V5.334c0-.329.089-.58.266-.755a.912.912 0 0 1 .668-.262c.588 0 .882.339.882 1.017v4.165h1.982V5.334c0-.392-.05-.743-.153-1.052a2.096 2.096 0 0 0-.45-.784 1.925 1.925 0 0 0-.74-.487 2.833 2.833 0 0 0-1.01-.167c-.204 0-.41.021-.617.063a2.537 2.537 0 0 0-.588.196 2.184 2.184 0 0 0-.518.348 1.94 1.94 0 0 0-.406.518 1.911 1.911 0 0 0-.598-.819c-.262-.204-.593-.306-.994-.306-.192 0-.367.02-.527.06a2.168 2.168 0 0 0-.835.41c-.12.096-.234.2-.345.314l-.109-.354a.44.44 0 0 0-.176-.247.552.552 0 0 0-.31-.082h-1.227V9.5h1.982zM41.91 9.6c.226 0 .464-.016.713-.047.25-.032.499-.089.748-.171a3.46 3.46 0 0 0 .729-.341c.236-.146.457-.334.662-.566l-.576-.701a.411.411 0 0 0-.358-.171.75.75 0 0 0-.342.082l-.358.183c-.13.068-.278.129-.444.184a1.908 1.908 0 0 1-.595.082c-.43 0-.782-.123-1.055-.37-.273-.246-.441-.644-.505-1.191h3.823a.65.65 0 0 0 .221-.032.267.267 0 0 0 .138-.114.566.566 0 0 0 .07-.22c.013-.093.019-.214.019-.361a3.43 3.43 0 0 0-.22-1.267 2.68 2.68 0 0 0-.614-.945 2.625 2.625 0 0 0-.94-.588 3.45 3.45 0 0 0-1.206-.202c-.507 0-.962.086-1.365.26a3.107 3.107 0 0 0-1.03.7c-.282.296-.5.639-.651 1.03a3.426 3.426 0 0 0-.227 1.246c0 .581.088 1.091.265 1.53.177.437.418.804.723 1.099.304.295.66.517 1.067.667.408.15.843.224 1.308.224zm1.113-4.165h-2.475c.068-.4.209-.707.422-.92.213-.212.51-.319.889-.319.213 0 .394.036.543.108.15.072.27.165.361.281.092.116.158.248.199.395.04.148.06.3.06.455z" fill="#fff"/>
    <path d="M48 0h-2.56v2.56H48V0z" fill="#FFD214"/>
</svg>
