<svg width="31" height="13" viewBox="0 0 31 13" fill="none" xmlns="http://www.w3.org/2000/svg">
    <g filter="url(#i1gq06wlza)" fill="#fff">
        <path d="M11.33 8.403V2.74H9.506v5.663h1.824zM13.831 8.403V4.93c.275-.474.651-.71 1.13-.71.137 0 .251.008.341.024.09.017.235.053.302.053.078 0 .17.018.212-.03.042-.047.046-.356.236-.708.142-.265.38-.476.38-.529 0-.176-.38-.264-.38-.264s-.335-.088-.664-.088c-.33 0-.637.045-.916.231-.278.186-.53.439-.753.76l-.1-.53a1.043 1.043 0 0 0-.056-.186.292.292 0 0 0-.094-.123.413.413 0 0 0-.153-.068.992.992 0 0 0-.227-.022h-1.082v5.663h1.824zM18.786 2.644c.259 0 .503.023.732.07.23.048.442.115.638.203h1.84v.635a.29.29 0 0 1-.085.206c-.057.055-.154.097-.291.126l-.447.092.01.033c.048.154.072.312.072.476 0 .284-.063.538-.19.764a1.778 1.778 0 0 1-.524.577c-.221.158-.483.28-.785.366a3.54 3.54 0 0 1-.97.128c-.192 0-.373-.01-.541-.033-.133.073-.2.157-.2.251 0 .095.054.163.162.205.107.042.25.071.426.088.176.016.378.027.605.032.228.006.459.019.694.039.236.02.467.053.694.1.227.048.43.125.606.23.176.106.318.247.426.424.108.176.162.401.162.674 0 .255-.067.505-.2.749-.134.244-.33.46-.588.65-.259.189-.576.341-.953.456a4.44 4.44 0 0 1-1.293.172c-.486 0-.89-.042-1.238-.126a3.117 3.117 0 0 1-.864-.33 1.447 1.447 0 0 1-.509-.473 1.048 1.048 0 0 1-.164-.557c0-.251.082-.463.247-.636.164-.173.39-.309.676-.407a.995.995 0 0 1-.33-.323.92.92 0 0 1-.076-.762.944.944 0 0 1 .147-.27c.067-.087.151-.171.253-.251.102-.08.223-.151.364-.213a1.95 1.95 0 0 1-.75-.623 1.524 1.524 0 0 1-.273-.901c0-.284.065-.54.195-.768.129-.228.306-.42.532-.58.225-.157.49-.28.796-.365.306-.086.637-.128.994-.128zm-.809 5.455a1.163 1.163 0 0 0-.28.243.468.468 0 0 0-.052.522.447.447 0 0 0 .197.17c.094.047.22.084.38.111.158.027.359.041.602.041.262 0 .478-.014.647-.044.168-.029.302-.069.402-.12.1-.05.17-.112.209-.183a.474.474 0 0 0 .059-.232.28.28 0 0 0-.091-.218.664.664 0 0 0-.247-.131 1.863 1.863 0 0 0-.365-.071 7.726 7.726 0 0 0-.45-.033c-.16-.008-.327-.014-.5-.02a6.805 6.805 0 0 1-.51-.035h-.001zm.811-4.32c-.301 0-.52.065-.655.196-.135.13-.203.311-.203.54 0 .11.017.21.05.301s.085.17.156.238c.07.067.16.12.267.158.108.038.236.058.385.058.302 0 .52-.07.656-.21a.75.75 0 0 0 .203-.544c0-.222-.068-.41-.203-.541-.135-.131-.354-.197-.656-.197z"/>
        <path d="M24.895 2.647c.463 0 .884.068 1.265.203.38.134.706.327.979.579.272.25.483.556.634.915.151.358.227.762.227 1.21 0 .448-.076.858-.227 1.22-.15.363-.362.67-.634.924a2.82 2.82 0 0 1-.98.584 3.72 3.72 0 0 1-1.264.205c-.462 0-.89-.068-1.272-.205a2.874 2.874 0 0 1-.988-.584 2.578 2.578 0 0 1-.641-.923 3.148 3.148 0 0 1-.226-1.221c0-.452.075-.852.226-1.21.15-.359.365-.664.64-.915.277-.252.606-.445.989-.58a3.808 3.808 0 0 1 1.272-.202zm0 1.257c-.43 0-.746.136-.946.41-.2.273-.3.69-.3 1.25 0 .561.1.98.3 1.254.2.275.515.413.946.413.432 0 .729-.138.927-.413.197-.275.296-.693.296-1.253 0-.561-.099-.978-.296-1.251-.198-.274-.507-.41-.927-.41zM4.827 8.428V5.903h.352c.117 0 .205.013.264.04a.43.43 0 0 1 .17.178L6.762 8.12a.512.512 0 0 0 .243.22c.1.042.218.063.355.063h1.656l-1.72-2.715a1.712 1.712 0 0 0-.46-.493c.102-.058.197-.124.285-.197.089-.073.17-.157.245-.252l1.58-2.02H7.276a.82.82 0 0 0-.35.065.613.613 0 0 0-.239.208L5.534 4.597a.478.478 0 0 1-.174.159.624.624 0 0 1-.262.043h-.27V2.704H3v5.724h1.827z"/>
    </g>
    <defs>
        <filter id="i1gq06wlza" x=".8" y=".884" width="29.4" height="12.113" filterUnits="userSpaceOnUse" color-interpolation-filters="sRGB">
            <feFlood flood-opacity="0" result="BackgroundImageFix"/>
            <feColorMatrix in="SourceAlpha" values="0 0 0 0 0 0 0 0 0 0 0 0 0 0 0 0 0 0 127 0" result="hardAlpha"/>
            <feOffset dy=".44"/>
            <feGaussianBlur stdDeviation="1.1"/>
            <feComposite in2="hardAlpha" operator="out"/>
            <feColorMatrix values="0 0 0 0 0 0 0 0 0 0 0 0 0 0 0 0 0 0 0.25 0"/>
            <feBlend in2="BackgroundImageFix" result="effect1_dropShadow_322_181"/>
            <feBlend in="SourceGraphic" in2="effect1_dropShadow_322_181" result="shape"/>
        </filter>
    </defs>
</svg>
