<svg width="15" height="11" viewBox="0 0 15 11" fill="none" xmlns="http://www.w3.org/2000/svg">
    <path d="M1.919.249A1.926 1.926 0 0 0 0 2.168v6.628c0 1.053.865 1.918 1.919 1.918H13.08A1.926 1.926 0 0 0 15 8.796V2.168A1.926 1.926 0 0 0 13.081.249H1.92zm0 1.047H13.08c.086 0 .168.01.246.032L7.664 6.642c-.062.059-.265.059-.327 0L1.674 1.328a.909.909 0 0 1 .245-.033zm-.872.883 5.57 5.227c.5.469 1.266.469 1.766 0l5.57-5.228v6.617c0 .492-.38.872-.872.872H1.92a.859.859 0 0 1-.872-.872V2.178z" fill="#fff"/>
</svg>
