<svg width="53" height="49" viewBox="0 0 53 49" fill="none" xmlns="http://www.w3.org/2000/svg">
    <path fill-rule="evenodd" clip-rule="evenodd" d="M27.538 46.681c12.266 0 22.21-9.943 22.21-22.21 0-12.266-9.944-22.21-22.21-22.21-12.267 0-22.21 9.944-22.21 22.21 0 12.267 9.943 22.21 22.21 22.21zm0 2.262c13.515 0 24.471-10.957 24.471-24.472S41.053 0 27.538 0 3.066 10.956 3.066 24.471s10.957 24.472 24.472 24.472z" fill="#fff"/>
    <path d="M38.931 19.027c.387-1.163.652-2.688.37-3.876-.174-.732-.644-1.14-1.156-1.803-.348-.45-.67-1.048-.876-1.237-1.3-1.192-3.703-1.706-5.388-1.116-.385-2.15-3.506-1.779-4.648-.866-2.383-2.896-5.713.647-5.69 3.607.007 1.066.729 1.683.799 2.505-1.86-.023-2.923 2.481-2.203 4.08.895 1.986 4.162 2.378 6.298 2.6-.58 3.214-2.129 5.966-3.49 8.584-.502-.843-1.238-1.5-1.894-2.405-.6-.829-1.186-2.191-2.033-2.687-2.971-1.74-5.99-2.546-8.872-2.294-2.175.19-4.022.852-5.542 1.774-.477.29-1.175.562-.886 1.23.773.548 1.63.042 2.292-.167 2.216-.7 4.741-1.389 7.58-.496.616.194 1.27.591 2.04.925.644.28 1.6.47 2.182.856.378.251.829.982 1.368 1.522.527.527 1.202.927 1.65 1.381.643.65.998 2.096 2.07 2.23.616.076 1.351-.782 1.91-1.473 1.158-1.431 2.192-3.283 2.911-4.78.562-1.17 1.508-3.31 1.217-4.295-.094-.32-.947-1.326-1.579-1.593-.398-.168-1.06-.058-1.69-.219-1.57-.401-4.204-1.061-3.797-2.342.242-.765 1.616-.833 2.541-.906.99-.078 2.122-.278 2.96-.058.5.132.98.577 1.514.747.828.263 1.916-.015 2.006.678-1.09.526-4.504-1.268-5.11-.197-.686 1.212 1.355 1.75 2.388 1.983 2.325.527 4.239.6 4.975-1.141 1.546.281 2.611-.409 3.042-2.384-.226-.741-.216-1.641-1.119-2.26-.78-.536-2.286-.922-2.468.342-.175 1.21 2.05.97 1.646 2.439-.937.297-2.243-.318-2.746-.929-.523-.636-.753-2.719-.196-3.596.527-.828 2.31-1.19 3.458-.83 1.496.468 2.924 2.514 3.017 3.255.162 1.29-.534 2.899-1.287 4.153-1.117 1.864-2.724 3.578-4.042 5.693-1.37 2.2-2.171 4.917-3.381 7.564-.61 1.334-1.417 2.557-1.99 3.798-.626 1.354-1.231 2.608-1.99 3.798-.982.262-2.62.697-3.739.618-1.569-.11-3.749-.197-5.214-.586-.93-.248-1.79-.754-2.673-1.14-1.921-.838-3.577-1.62-5.312-2.383-.916-.405-.838-2.156-1.633-2.62.668-1.412-.752-.44 0 0-.344.729.838 2.17 1.54 2.756 1.976 1.65 1.897 3.26 5.008 4.467a19.114 19.114 0 0 0 9.864 1.1c.892-.133 1.834-.123 2.468-.343 2.009-.692 3.621-3.42 4.89-5.76 1.74-3.208 3.807-7.958 4.49-11.54 1.538-1.64 3.354-3.97 4.15-6.363zm-13.274-3.195c-1.505.256-1.42-1.35-1.859-2.158.514-1.45 1.008-2.94 2.408-2.598.079.079.158.156.14.283-.48 1.015-.976 2.082-.93 3.098.027.583.453.984.241 1.375zm3.418.332c-3.229-.096-1.02-5.992 1.57-4.645-1.374.777-1.756 3.204-1.57 4.645z" fill="#fff"/>
    <path d="M16.652 22.828c.363-.817.213-1.38.009-1.916-2.003-.786-1.738 3.019-.009 1.916zM13.269 22.431c1.11-1.27-1.109-2.956-1.463-1.347-.135.611.494 1.375 1.463 1.347zM19.358 24.916c.595.115 1.136-.542 1.123-1.432-1.096-1.811-2.817 1.104-1.123 1.432z" fill="#fff"/>
</svg>
