<svg width="53" height="49" viewBox="0 0 53 49" fill="none" xmlns="http://www.w3.org/2000/svg">
<path d="M52.7519 24.4957C52.7519 38.0108 41.7957 48.967 28.2806 48.967C14.7655 48.967 3.80933 38.0108 3.80933 24.4957C3.80933 10.9806 14.7655 0.0244141 28.2806 0.0244141C41.7957 0.0244141 52.7519 10.9806 52.7519 24.4957Z" fill="#0D0C0C"/>
<path fill-rule="evenodd" clip-rule="evenodd" d="M28.2806 46.7057C40.5469 46.7057 50.4906 36.762 50.4906 24.4957C50.4906 12.2295 40.5469 2.28569 28.2806 2.28569C16.0144 2.28569 6.0706 12.2295 6.0706 24.4957C6.0706 36.762 16.0144 46.7057 28.2806 46.7057ZM28.2806 48.967C41.7957 48.967 52.7519 38.0108 52.7519 24.4957C52.7519 10.9806 41.7957 0.0244141 28.2806 0.0244141C14.7655 0.0244141 3.80933 10.9806 3.80933 24.4957C3.80933 38.0108 14.7655 48.967 28.2806 48.967Z" fill="white"/>
<path d="M39.6731 19.051C40.0593 17.8882 40.3248 16.3633 40.0424 15.1757C39.8685 14.4436 39.3988 14.0355 38.8865 13.3729C38.5384 12.9227 38.2163 12.3245 38.0106 12.1357C36.7108 10.9436 34.3072 10.4292 32.6227 11.0198C32.2377 8.87 29.1172 9.2408 27.9743 10.1538C25.5921 7.25774 22.262 10.8006 22.2839 13.7599C22.2917 14.8267 23.0137 15.4432 23.0836 16.2654C21.2245 16.2428 20.1606 18.7467 20.8804 20.3446C21.7752 22.3312 25.0423 22.723 27.179 22.9447C26.5989 26.1591 25.0497 28.9118 23.6879 31.5296C23.1868 30.6859 22.4512 30.0302 21.7944 29.1248C21.1943 28.2954 20.6086 26.9334 19.7614 26.4375C16.7904 24.697 13.7719 23.8918 10.8892 24.1434C8.71484 24.333 6.86737 24.995 5.34787 25.9172C4.8703 26.2066 4.17293 26.4794 4.46163 27.1469C5.23483 27.6953 6.09141 27.1893 6.75344 26.9803C8.9696 26.2796 11.4951 25.5914 14.3332 26.4844C14.9493 26.6783 15.6043 27.0759 16.3742 27.4098C17.0173 27.6894 17.9743 27.8794 18.5556 28.2656C18.9338 28.5165 19.3847 29.2473 19.9236 29.787C20.4509 30.3148 21.1258 30.7144 21.5742 31.1686C22.2171 31.8184 22.5715 33.2643 23.6445 33.3975C24.2595 33.474 24.9952 32.6162 25.5541 31.9255C26.7118 30.4944 27.7462 28.6428 28.4651 27.1449C29.0263 25.9749 29.9727 23.8356 29.6819 22.8501C29.5879 22.531 28.735 21.5242 28.1032 21.2575C27.7047 21.0895 27.0428 21.1999 26.4121 21.0388C24.8428 20.6374 22.2087 19.9772 22.6155 18.6963C22.8576 17.9309 24.2313 17.8639 25.1568 17.7905C26.1458 17.7121 27.2783 17.5124 28.1176 17.7327C28.616 17.864 29.0958 18.3096 29.6302 18.4794C30.4587 18.7424 31.5462 18.4644 31.6367 19.1579C30.5464 19.6838 27.1323 17.8898 26.5269 18.9599C25.8409 20.1727 27.8821 20.71 28.9145 20.9438C31.2393 21.47 33.1536 21.5434 33.8894 19.8024C35.4354 20.0837 36.5011 19.3936 36.9313 17.4186C36.7059 16.677 36.7152 15.7772 35.8128 15.158C35.0331 14.6227 33.5265 14.2366 33.3442 15.5C33.1692 16.7109 35.3944 16.4706 34.9903 17.939C34.054 18.2362 32.7474 17.6213 32.245 17.0107C31.7222 16.3749 31.4917 14.2918 32.0489 13.4148C32.5761 12.5864 34.3583 12.2242 35.5069 12.5836C37.0029 13.0527 38.4303 15.0984 38.5234 15.8391C38.6859 17.1294 37.9892 18.7381 37.2367 19.993C36.1198 21.8569 34.5122 23.5705 33.1943 25.6856C31.8246 27.8848 31.0236 30.6022 29.8134 33.249C29.2033 34.5831 28.3967 35.8064 27.8234 37.0472C27.1976 38.4017 26.5927 39.6557 25.8338 40.8456C24.8515 41.1075 23.2131 41.5427 22.0947 41.4637C20.5262 41.3527 18.346 41.2665 16.8807 40.8774C15.9502 40.6298 15.0898 40.1235 14.2072 39.7382C12.2865 38.8991 10.6303 38.1183 8.89535 37.3542C7.97936 36.9498 8.05733 35.1983 7.26277 34.7343C6.51068 34.2947 7.93024 33.3224 7.26277 34.7343C6.91869 35.463 8.10117 36.9046 8.80179 37.4901C10.7784 39.141 10.7002 40.7505 13.8103 41.9575C17.453 43.3697 20.8248 43.482 23.6745 43.0569C24.5666 42.924 25.5087 42.934 26.1432 42.7145C28.1513 42.0219 29.764 39.2939 31.0323 36.9551C32.7723 33.746 34.8395 28.9962 35.523 25.4138C37.0607 23.7751 38.8763 21.444 39.6731 19.051ZM26.3988 15.8569C24.8942 16.1126 24.9788 14.5062 24.54 13.6986C25.0541 12.248 25.5477 10.7581 26.9481 11.1006C27.0262 11.1792 27.106 11.2569 27.0883 11.3833C26.6085 12.3981 26.1117 13.4657 26.1582 14.4811C26.1845 15.0641 26.611 15.4651 26.3988 15.8569ZM29.8166 16.1888C26.5881 16.0926 28.7961 10.1968 31.3874 11.5432C30.0128 12.3201 29.6306 14.7474 29.8166 16.1888Z" fill="white"/>
<path d="M17.3944 22.8525C17.7576 22.0355 17.6072 21.4731 17.4027 20.9368C15.4 20.1505 15.6655 23.9551 17.3944 22.8525Z" fill="white"/>
<path d="M14.0114 22.4556C15.1223 21.1845 12.9031 19.4996 12.5487 21.1085C12.4135 21.7196 13.0423 22.4835 14.0114 22.4556Z" fill="white"/>
<path d="M20.0998 24.9404C20.6947 25.0557 21.2359 24.3986 21.2231 23.508C20.1272 21.6972 18.4061 24.6121 20.0998 24.9404Z" fill="white"/>
</svg>
