<svg width="23" height="22" viewBox="0 0 23 22" fill="none" xmlns="http://www.w3.org/2000/svg">
    <circle cx="12.178" cy="10.822" r="10.322" fill="#0D0C0C" stroke="#fff"/>
    <path d="M17.216 8.414c.17-.514.288-1.188.163-1.714-.059-.249-.196-.413-.359-.61a6.69 6.69 0 0 1-.152-.187 4.412 4.412 0 0 1-.196-.285 1.652 1.652 0 0 0-.191-.262c-.575-.527-1.638-.755-2.383-.493-.17-.951-1.55-.787-2.056-.383-1.053-1.281-2.526.286-2.516 1.594.002.262.1.462.194.65.075.152.146.296.16.458-.822-.01-1.293 1.098-.975 1.804.396.879 1.84 1.052 2.786 1.15-.234 1.297-.825 2.423-1.384 3.49l-.16.307a4.253 4.253 0 0 0-.458-.597 6.924 6.924 0 0 1-.38-.467 5.504 5.504 0 0 1-.24-.377c-.19-.316-.396-.658-.658-.811-1.314-.77-2.65-1.126-3.924-1.015a5.62 5.62 0 0 0-2.45.785l-.086.05c-.198.112-.418.236-.306.494.28.198.586.084.848-.015a3.33 3.33 0 0 1 .165-.06c.98-.31 2.097-.613 3.352-.219.165.052.336.137.52.229.121.06.248.122.383.18.106.047.233.088.363.13.216.07.44.143.601.25.095.062.2.192.315.336.09.112.187.232.29.336.12.12.257.225.39.326.124.095.244.187.34.285.096.097.177.234.261.375.165.277.34.572.655.61.272.035.597-.345.844-.65.512-.633.97-1.452 1.288-2.114.248-.518.666-1.464.538-1.9-.042-.14-.419-.586-.698-.704-.091-.038-.213-.044-.348-.05-.127-.006-.265-.012-.4-.047l-.02-.005c-.696-.178-1.837-.47-1.66-1.03.103-.322.656-.365 1.063-.396l.062-.005c.094-.008.19-.018.288-.028.358-.036.73-.074 1.021.002.113.03.224.096.337.164.108.064.217.13.332.166.127.04.269.052.4.063.248.02.461.038.487.237-.215.104-.634.004-1.057-.097-.524-.126-1.054-.252-1.203.01-.303.536.6.774 1.056.877 1.028.233 1.875.265 2.2-.504.684.124 1.155-.181 1.346-1.055a3.115 3.115 0 0 1-.056-.221c-.061-.274-.127-.564-.439-.778-.345-.237-1.011-.408-1.092.15-.036.251.16.361.36.474.23.128.463.26.368.605-.414.132-.992-.14-1.214-.41-.231-.281-.333-1.202-.086-1.59.233-.367 1.02-.527 1.529-.368.661.208 1.292 1.112 1.334 1.44.072.57-.237 1.282-.57 1.837-.248.415-.552.814-.867 1.226-.31.407-.63.827-.92 1.291-.387.622-.672 1.337-.966 2.078-.166.418-.336.845-.53 1.267-.138.304-.3.595-.46.88-.149.27-.296.534-.42.8-.276.599-.543 1.153-.879 1.68-.434.115-1.159.308-1.654.273a47.407 47.407 0 0 0-.34-.023c-.646-.041-1.418-.091-1.965-.236-.284-.076-.553-.206-.82-.335-.121-.058-.241-.116-.363-.17-.46-.2-.885-.393-1.3-.582a98.45 98.45 0 0 0-1.049-.472c-.213-.094-.304-.352-.394-.606-.081-.23-.16-.455-.328-.552-.152.322.371.96.68 1.219.322.268.52.533.711.788.329.44.634.85 1.505 1.187a8.452 8.452 0 0 0 4.362.486c.144-.021.29-.034.433-.047.247-.022.48-.042.659-.104.888-.306 1.601-1.513 2.162-2.547.77-1.42 1.684-3.52 1.986-5.104.68-.725 1.483-1.756 1.835-2.814zm-5.87-1.412c-.491.083-.6-.282-.7-.622a1.785 1.785 0 0 0-.122-.333l.015-.041c.222-.628.444-1.256 1.05-1.108l.002.002c.034.034.068.068.06.123-.212.45-.432.921-.412 1.37.005.11.042.205.076.292.046.116.085.217.03.317zm1.511.146c-1.427-.042-.451-2.65.695-2.054-.608.344-.777 1.417-.695 2.054z" fill="#fff"/>
    <path d="M17.216 8.414c.17-.514.288-1.188.163-1.714-.059-.249-.196-.413-.359-.61a6.69 6.69 0 0 1-.152-.187 4.412 4.412 0 0 1-.196-.285 1.652 1.652 0 0 0-.191-.262c-.575-.527-1.638-.755-2.383-.493-.17-.951-1.55-.787-2.056-.383-1.053-1.281-2.526.286-2.516 1.594.002.262.1.462.194.65.075.152.146.296.16.458-.822-.01-1.293 1.098-.975 1.804.396.879 1.84 1.052 2.786 1.15-.234 1.297-.825 2.423-1.384 3.49l-.16.307a4.253 4.253 0 0 0-.458-.597 6.924 6.924 0 0 1-.38-.467 5.504 5.504 0 0 1-.24-.377c-.19-.316-.396-.658-.658-.811-1.314-.77-2.65-1.126-3.924-1.015a5.62 5.62 0 0 0-2.45.785l-.086.05c-.198.112-.418.236-.306.494.28.198.586.084.848-.015a3.33 3.33 0 0 1 .165-.06c.98-.31 2.097-.613 3.352-.219.165.052.336.137.52.229.121.06.248.122.383.18.106.047.233.088.363.13.216.07.44.143.601.25.095.062.2.192.315.336.09.112.187.232.29.336.12.12.257.225.39.326.124.095.244.187.34.285.096.097.177.234.261.375.165.277.34.572.655.61.272.035.597-.345.844-.65.512-.633.97-1.452 1.288-2.114.248-.518.666-1.464.538-1.9-.042-.14-.419-.586-.698-.704-.091-.038-.213-.044-.348-.05-.127-.006-.265-.012-.4-.047l-.02-.005c-.696-.178-1.837-.47-1.66-1.03.103-.322.656-.365 1.063-.396l.062-.005c.094-.008.19-.018.288-.028.358-.036.73-.074 1.021.002.113.03.224.096.337.164.108.064.217.13.332.166.127.04.269.052.4.063.248.02.461.038.487.237-.215.104-.634.004-1.057-.097-.524-.126-1.054-.252-1.203.01-.303.536.6.774 1.056.877 1.028.233 1.875.265 2.2-.504.684.124 1.155-.181 1.346-1.055a3.115 3.115 0 0 1-.056-.221c-.061-.274-.127-.564-.439-.778-.345-.237-1.011-.408-1.092.15-.036.251.16.361.36.474.23.128.463.26.368.605-.414.132-.992-.14-1.214-.41-.231-.281-.333-1.202-.086-1.59.233-.367 1.02-.527 1.529-.368.661.208 1.292 1.112 1.334 1.44.072.57-.237 1.282-.57 1.837-.248.415-.552.814-.867 1.226-.31.407-.63.827-.92 1.291-.387.622-.672 1.337-.966 2.078-.166.418-.336.845-.53 1.267-.138.304-.3.595-.46.88-.149.27-.296.534-.42.8-.276.599-.543 1.153-.879 1.68-.434.115-1.159.308-1.654.273a47.407 47.407 0 0 0-.34-.023c-.646-.041-1.418-.091-1.965-.236-.284-.076-.553-.206-.82-.335-.121-.058-.241-.116-.363-.17-.46-.2-.885-.393-1.3-.582a98.45 98.45 0 0 0-1.049-.472c-.213-.094-.304-.352-.394-.606-.081-.23-.16-.455-.328-.552-.152.322.371.96.68 1.219.322.268.52.533.711.788.329.44.634.85 1.505 1.187a8.452 8.452 0 0 0 4.362.486c.144-.021.29-.034.433-.047.247-.022.48-.042.659-.104.888-.306 1.601-1.513 2.162-2.547.77-1.42 1.684-3.52 1.986-5.104.68-.725 1.483-1.756 1.835-2.814zm-5.87-1.412c-.491.083-.6-.282-.7-.622a1.785 1.785 0 0 0-.122-.333l.015-.041c.222-.628.444-1.256 1.05-1.108l.002.002c.034.034.068.068.06.123-.212.45-.432.921-.412 1.37.005.11.042.205.076.292.046.116.085.217.03.317zm1.511.146c-1.427-.042-.451-2.65.695-2.054-.608.344-.777 1.417-.695 2.054z" stroke="#000"/>
    <path d="M7.364 10.095c.16-.36.094-.61.003-.847-.885-.347-.768 1.335-.003.848z" fill="#fff"/>
    <path d="M7.364 10.095c.16-.36.094-.61.003-.847-.885-.347-.768 1.335-.003.848z" stroke="#000"/>
    <path d="M5.868 9.92c.491-.562-.49-1.307-.647-.596-.06.27.218.608.647.596z" fill="#fff"/>
    <path d="M5.868 9.92c.491-.562-.49-1.307-.647-.596-.06.27.218.608.647.596z" stroke="#000"/>
    <path d="M8.56 11.019c.263.05.503-.24.497-.634-.485-.8-1.246.489-.497.634z" fill="#fff"/>
    <path d="M8.56 11.019c.263.05.503-.24.497-.634-.485-.8-1.246.489-.497.634z" stroke="#000"/>
</svg>
