<svg width="13" height="13" viewBox="0 0 13 13" fill="none" xmlns="http://www.w3.org/2000/svg">
    <path d="m12.513 8.71-1.566-1.442a1.546 1.546 0 0 0-1.08-.45c-.393 0-.77.155-1.088.447l-.816.75-.117-.054a3.031 3.031 0 0 1-.267-.133C6.75 7.345 5.997 6.71 5.27 5.894c-.32-.371-.54-.684-.701-.991.206-.178.401-.36.586-.534.077-.073.159-.148.238-.22.326-.3.499-.65.499-1.011 0-.364-.173-.713-.5-1.011l-.777-.716c-.088-.08-.172-.16-.26-.243l-.003-.004a14.07 14.07 0 0 0-.536-.488A1.59 1.59 0 0 0 2.743.25c-.39 0-.765.149-1.084.43l-.981.902a1.97 1.97 0 0 0-.666 1.31c-.053.605.067 1.244.376 2.008.466 1.165 1.168 2.242 2.208 3.391a13.509 13.509 0 0 0 4.52 3.257v.001c.673.293 1.574.637 2.57.696h.012c.058.003.117.005.18.005.715 0 1.291-.228 1.761-.696.008-.009.019-.018.029-.032a5.76 5.76 0 0 1 .442-.42l.037-.034c.15-.132.269-.24.374-.341.314-.301.48-.651.479-1.013 0-.363-.168-.71-.487-1.003zM1.098 2.976c.026-.275.138-.494.35-.69l.97-.892a.503.503 0 0 1 .322-.145c.127 0 .239.08.31.147l.008.007c.147.126.29.259.44.4l.068.064.137.128c.044.041.09.083.134.126l.78.718c.082.075.18.189.18.302 0 .114-.098.228-.18.303l-.122.114-.121.112-.055.051c-.22.205-.43.399-.655.584l-.022.02c-.34.314-.224.638-.185.745l.007.022.006.012c.213.47.505.908.947 1.42l.002.001c.796.903 1.636 1.607 2.569 2.153.102.061.206.11.308.156l.056.026.002.002c.096.043.188.087.267.133l.024.012.023.012a.787.787 0 0 0 .903-.142l.977-.898c.076-.07.192-.152.318-.152.13 0 .241.092.298.147l.002.003 1.577 1.448c.226.208.223.392-.01.615l-.003.002c-.11.109-.228.213-.338.311l-.032.028c-.176.157-.358.32-.528.506-.258.254-.551.367-.951.367-.037 0-.08-.002-.121-.005-.818-.048-1.588-.345-2.168-.6a12.387 12.387 0 0 1-4.156-2.994c-.957-1.06-1.6-2.044-2.025-3.099-.251-.622-.352-1.125-.313-1.58z" fill="#fff"/>
</svg>
