<svg width="48" height="46" viewBox="0 0 48 46" fill="none" xmlns="http://www.w3.org/2000/svg">
    <circle cx="24.422" cy="23" r="21" fill="#BBCEA8" stroke="#000" stroke-width="4"/>
    <path d="M37.243 18.202c.37-1.112.624-2.57.354-3.707-.129-.54-.424-.895-.777-1.319-.106-.127-.216-.26-.33-.406a9.533 9.533 0 0 1-.425-.617c-.161-.248-.304-.467-.412-.566-1.244-1.14-3.543-1.633-5.154-1.068-.369-2.056-3.354-1.702-4.447-.828-2.28-2.77-5.465.619-5.444 3.45.004.565.218.998.42 1.406.161.328.315.64.345.99-1.779-.021-2.797 2.374-2.108 3.903.856 1.9 3.982 2.275 6.026 2.487-.506 2.805-1.784 5.243-2.993 7.55-.117.222-.233.443-.347.663-.275-.463-.624-.867-.99-1.291-.272-.315-.554-.64-.821-1.01a11.98 11.98 0 0 1-.52-.814c-.413-.686-.858-1.424-1.425-1.756-2.843-1.665-5.73-2.436-8.488-2.195-2.08.181-3.848.815-5.301 1.697a7.906 7.906 0 0 1-.185.107c-.428.243-.904.513-.663 1.07.607.43 1.267.181 1.835-.032.124-.047.244-.092.357-.128 2.12-.67 4.537-1.329 7.252-.474.356.112.726.295 1.125.493.262.13.536.266.827.392.231.1.505.189.786.28.466.15.954.308 1.301.539.204.135.43.417.682.73.194.24.402.5.627.725.26.26.556.487.841.705.27.207.53.406.738.617.207.21.383.505.564.81.357.601.736 1.238 1.416 1.322.589.073 1.293-.747 1.827-1.408 1.108-1.37 2.097-3.14 2.785-4.573.537-1.12 1.442-3.166 1.164-4.11-.09-.304-.906-1.268-1.51-1.523-.197-.083-.46-.095-.752-.108-.274-.013-.574-.026-.866-.101l-.043-.011c-1.506-.385-3.974-1.016-3.589-2.23.22-.696 1.418-.788 2.297-.856l.134-.01c.203-.017.413-.038.625-.06.774-.079 1.577-.161 2.208.004.244.065.485.209.73.355.232.139.468.28.717.36.276.087.582.112.867.135.534.044.996.081 1.052.514-.465.224-1.372.007-2.286-.211-1.135-.272-2.281-.546-2.602.021-.656 1.16 1.296 1.675 2.284 1.898 2.224.504 4.055.574 4.76-1.092 1.478.27 2.498-.39 2.91-2.28-.047-.154-.084-.315-.12-.48-.133-.59-.275-1.22-.95-1.683-.747-.512-2.188-.881-2.362.327-.079.542.345.78.78 1.024.493.277 1 .562.794 1.31-.895.284-2.145-.304-2.626-.888-.5-.609-.72-2.602-.188-3.44.505-.793 2.21-1.14 3.309-.796 1.43.449 2.796 2.406 2.886 3.115.155 1.234-.512 2.773-1.231 3.974-.539.898-1.197 1.76-1.878 2.653-.67.88-1.364 1.789-1.99 2.792-.837 1.345-1.453 2.893-2.09 4.495-.36.905-.726 1.828-1.144 2.741-.3.658-.651 1.287-.995 1.905a26.15 26.15 0 0 0-.909 1.729c-.599 1.296-1.177 2.495-1.903 3.633-.94.251-2.507.667-3.577.592-.234-.017-.482-.033-.739-.05-1.394-.09-3.066-.197-4.25-.511-.613-.163-1.195-.444-1.774-.724-.26-.126-.52-.252-.783-.366-.995-.435-1.915-.853-2.814-1.261-.761-.346-1.506-.684-2.268-1.02-.46-.203-.658-.762-.852-1.311-.176-.496-.349-.984-.71-1.195-.329.697.803 2.076 1.473 2.636.694.58 1.123 1.155 1.536 1.707.711.951 1.372 1.836 3.255 2.567a18.287 18.287 0 0 0 9.437 1.052c.311-.047.629-.075.936-.102.536-.047 1.04-.092 1.426-.226 1.92-.662 3.464-3.272 4.677-5.51 1.665-3.07 3.642-7.613 4.296-11.04 1.471-1.568 3.208-3.798 3.97-6.088zm-12.699-3.055c-1.062.18-1.296-.61-1.515-1.346-.077-.262-.153-.517-.263-.719l.032-.09c.48-1.359.961-2.716 2.272-2.396l.004.004c.073.074.147.148.13.267-.46.97-.934 1.992-.89 2.964.01.237.091.443.164.63.098.252.183.47.066.686zm3.27.317c-3.089-.092-.976-5.732 1.503-4.444-1.315.743-1.68 3.065-1.503 4.444z" fill="#000"/>
    <path d="M37.243 18.202c.37-1.112.624-2.57.354-3.707-.129-.54-.424-.895-.777-1.319-.106-.127-.216-.26-.33-.406a9.533 9.533 0 0 1-.425-.617c-.161-.248-.304-.467-.412-.566-1.244-1.14-3.543-1.633-5.154-1.068-.369-2.056-3.354-1.702-4.447-.828-2.28-2.77-5.465.619-5.444 3.45.004.565.218.998.42 1.406.161.328.315.64.345.99-1.779-.021-2.797 2.374-2.108 3.903.856 1.9 3.982 2.275 6.026 2.487-.506 2.805-1.784 5.243-2.993 7.55-.117.222-.233.443-.347.663-.275-.463-.624-.867-.99-1.291-.272-.315-.554-.64-.821-1.01a11.98 11.98 0 0 1-.52-.814c-.413-.686-.858-1.424-1.425-1.756-2.843-1.665-5.73-2.436-8.488-2.195-2.08.181-3.848.815-5.301 1.697a7.906 7.906 0 0 1-.185.107c-.428.243-.904.513-.663 1.07.607.43 1.267.181 1.835-.032.124-.047.244-.092.357-.128 2.12-.67 4.537-1.329 7.252-.474.356.112.726.295 1.125.493.262.13.536.266.827.392.231.1.505.189.786.28.466.15.954.308 1.301.539.204.135.43.417.682.73.194.24.402.5.627.725.26.26.556.487.841.705.27.207.53.406.738.617.207.21.383.505.564.81.357.601.736 1.238 1.416 1.322.589.073 1.293-.747 1.827-1.408 1.108-1.37 2.097-3.14 2.785-4.573.537-1.12 1.442-3.166 1.164-4.11-.09-.304-.906-1.268-1.51-1.523-.197-.083-.46-.095-.752-.108-.274-.013-.574-.026-.866-.101l-.043-.011c-1.506-.385-3.974-1.016-3.589-2.23.22-.696 1.418-.788 2.297-.856l.134-.01c.203-.017.413-.038.625-.06.774-.079 1.577-.161 2.208.004.244.065.485.209.73.355.232.139.468.28.717.36.276.087.582.112.867.135.534.044.996.081 1.052.514-.465.224-1.372.007-2.286-.211-1.135-.272-2.281-.546-2.602.021-.656 1.16 1.296 1.675 2.284 1.898 2.224.504 4.055.574 4.76-1.092 1.478.27 2.498-.39 2.91-2.28-.047-.154-.084-.315-.12-.48-.133-.59-.275-1.22-.95-1.683-.747-.512-2.188-.881-2.362.327-.079.542.345.78.78 1.024.493.277 1 .562.794 1.31-.895.284-2.145-.304-2.626-.888-.5-.609-.72-2.602-.188-3.44.505-.793 2.21-1.14 3.309-.796 1.43.449 2.796 2.406 2.886 3.115.155 1.234-.512 2.773-1.231 3.974-.539.898-1.197 1.76-1.878 2.653-.67.88-1.364 1.789-1.99 2.792-.837 1.345-1.453 2.893-2.09 4.495-.36.905-.726 1.828-1.144 2.741-.3.658-.651 1.287-.995 1.905a26.15 26.15 0 0 0-.909 1.729c-.599 1.296-1.177 2.495-1.903 3.633-.94.251-2.507.667-3.577.592-.234-.017-.482-.033-.739-.05-1.394-.09-3.066-.197-4.25-.511-.613-.163-1.195-.444-1.774-.724-.26-.126-.52-.252-.783-.366-.995-.435-1.915-.853-2.814-1.261-.761-.346-1.506-.684-2.268-1.02-.46-.203-.658-.762-.852-1.311-.176-.496-.349-.984-.71-1.195-.329.697.803 2.076 1.473 2.636.694.58 1.123 1.155 1.536 1.707.711.951 1.372 1.836 3.255 2.567a18.287 18.287 0 0 0 9.437 1.052c.311-.047.629-.075.936-.102.536-.047 1.04-.092 1.426-.226 1.92-.662 3.464-3.272 4.677-5.51 1.665-3.07 3.642-7.613 4.296-11.04 1.471-1.568 3.208-3.798 3.97-6.088zm-12.699-3.055c-1.062.18-1.296-.61-1.515-1.346-.077-.262-.153-.517-.263-.719l.032-.09c.48-1.359.961-2.716 2.272-2.396l.004.004c.073.074.147.148.13.267-.46.97-.934 1.992-.89 2.964.01.237.091.443.164.63.098.252.183.47.066.686zm3.27.317c-3.089-.092-.976-5.732 1.503-4.444-1.315.743-1.68 3.065-1.503 4.444z" stroke="#000"/>
    <path d="M15.93 21.84c.348-.782.204-1.32.008-1.833-1.916-.752-1.662 2.887-.008 1.833z" fill="#000"/>
    <path d="M15.93 21.84c.348-.782.204-1.32.008-1.833-1.916-.752-1.662 2.887-.008 1.833z" stroke="#000"/>
    <path d="M12.694 21.46c1.062-1.217-1.06-2.829-1.4-1.29-.129.585.473 1.316 1.4 1.29z" fill="#000"/>
    <path d="M12.694 21.46c1.062-1.217-1.06-2.829-1.4-1.29-.129.585.473 1.316 1.4 1.29z" stroke="#000"/>
    <path d="M18.518 23.835c.57.11 1.087-.518 1.075-1.37-1.049-1.732-2.695 1.056-1.075 1.37z" fill="#000"/>
    <path d="M18.518 23.835c.57.11 1.087-.518 1.075-1.37-1.049-1.732-2.695 1.056-1.075 1.37z" stroke="#000"/>
</svg>
