<svg width="234" height="101" viewBox="0 0 234 101" fill="none" xmlns="http://www.w3.org/2000/svg">
    <path d="M23.092 21.276c-2.84-.757-6.152-1.183-9.18-1.183-7.855 0-12.492 2.792-12.492 7.666 0 4.873 4.732 7.003 8.612 8.754 2.697 1.23 4.968 2.27 4.968 3.88 0 1.04-1.183 1.798-2.934 2.082-.473.047-.946.094-1.466.094l-8.187-6.814v9.275c3.36.615 6.862.9 9.228.9 4.968 0 12.35-1.326 12.35-7.572 0-4.826-4.448-6.814-8.186-8.565-2.84-1.277-5.3-2.413-5.3-4.4 0-1.23 1.04-1.893 3.17-1.893.473 0 .852 0 1.23.094l8.187 6.767v-9.085zm20.258 19.78c-.852.473-1.704.71-2.603.71-2.271 0-3.265-1.326-3.265-4.496V23.31h4.921v-2.365h-4.92v-7.051l-11.357 8.66v.757h2.65l.047 15.378c0 4.401 2.933 7.193 7.476 7.193 3.17 0 5.915-1.325 7.855-3.833l-.804-.994zm2.23 4.305h15l-3.407-3.974V27.048c0-1.988.52-2.697 2.082-2.697h1.278l6.01 5.157 1.94-8.564H45.58l2.934 3.454v16.893l-2.934 4.07zm23.445-12.35c0 7.76 5.49 12.918 13.676 12.918s13.722-5.205 13.722-12.918c0-7.666-5.536-12.918-13.722-12.918-8.187 0-13.676 5.205-13.676 12.918zm13.723-10.08c3.076 0 4.732 3.55 4.827 9.938.047 6.625-1.657 10.221-4.827 10.221-3.123 0-4.827-3.502-4.827-9.984 0-6.53 1.751-10.174 4.827-10.174zm35.427-2.27c-3.265-.048-5.773.946-8.139 3.17v-4.07l-11.404 2.414 2.697 3.927.047 15.19-2.839 4.07h14.433l-2.934-4.023V27.333c1.514-1.467 3.028-2.177 4.495-2.177 2.366 0 3.265 1.798 3.265 6.814l-.047 9.37-2.697 4.021h14.29l-2.934-4.022.048-8.801c-.095-8.565-2.366-11.83-8.281-11.877zm35.663 2.744c-2.508-2.65-6.199-3.643-9.748-3.643-6.104 0-11.925 3.075-11.925 9.795 0 3.028 1.183 5.63 3.549 7.476-1.325.852-2.318 1.94-2.839 3.313a6.655 6.655 0 0 0-.378 2.224c0 1.656.567 3.123 1.94 4.164-1.609 1.088-2.981 2.697-2.981 4.826 0 4.969 7.665 5.915 11.829 6.057h.899c5.679 0 14.196-1.514 14.196-8.801 0-6.625-7.003-6.956-12.729-7.193-3.974-.19-7.334-.331-7.334-2.555v-.284c.047-.095.047-.142.047-.19 1.988.805 4.164 1.184 6.294 1.184 6.246 0 11.546-3.218 11.546-9.937 0-1.23-.19-2.461-.616-3.597h4.023v-7.381l-5.773 4.542zm-2.366 28.486c0 2.745-4.448 3.265-6.53 3.265h-.71c-2.65-.142-6.388-1.04-6.956-3.88a4.192 4.192 0 0 1-.095-.804c0-.852.284-1.656.663-2.366 1.372.284 2.839.426 4.258.52.474.048.947.048 1.42.048 2.745.094 7.95.236 7.95 3.217zM140.825 29.51c0-2.224.473-7.429 3.359-7.429 2.887 0 3.36 5.442 3.36 7.619 0 2.082-.426 7.855-3.312 7.855-2.839 0-3.407-5.679-3.407-8.045zm45.079 4.969c1.372-8.14-1.846-14.338-10.884-14.338-8.281 0-13.297 5.158-13.249 13.155.047 7.808 4.921 12.634 12.397 12.634 5.016 0 8.471-2.177 11.783-7.476l-1.467-.947c-2.224 2.697-4.874 4.212-7.382 4.212-3.407 0-5.867-2.792-6.341-7.24h15.143zm-10.789-10.93c3.549 0 3.407 5.961 3.17 8.517h-7.618c.142-5.206 1.798-8.518 4.448-8.518zM188.37 45.36h15l-3.407-3.974V27.048c0-1.988.521-2.697 2.082-2.697h1.278l6.01 5.157 1.94-8.564H188.37l2.934 3.454v16.893l-2.934 4.07zM39.378 75.751c1.372-8.139-1.846-14.338-10.884-14.338-8.28 0-13.296 5.158-13.25 13.155.048 7.808 4.922 12.635 12.398 12.635 5.016 0 8.47-2.177 11.783-7.477l-1.467-.946c-2.224 2.697-4.874 4.211-7.382 4.211-3.407 0-5.867-2.792-6.34-7.24h15.142zm-10.79-10.93c3.55 0 3.408 5.962 3.171 8.517h-7.618c.142-5.205 1.798-8.517 4.448-8.517zm29.345-2.603 3.644 8.328-4.401 10.505-4.969-13.628 2.745-5.205H41.04l8.99 24.417h7.382l6.72-16.089 4.874-8.328H57.933zM94.137 75.75c1.372-8.139-1.845-14.338-10.883-14.338-8.281 0-13.297 5.158-13.25 13.155.047 7.808 4.921 12.635 12.398 12.635 5.016 0 8.47-2.177 11.782-7.477l-1.466-.946c-2.225 2.697-4.874 4.211-7.382 4.211-3.407 0-5.868-2.792-6.341-7.24h15.142zm-10.789-10.93c3.55 0 3.407 5.962 3.17 8.517H78.9c.142-5.205 1.798-8.517 4.448-8.517zm13.256 21.814h15l-3.407-3.975V68.322c0-1.987.52-2.697 2.082-2.697h1.277l6.01 5.158 1.94-8.565H96.604l2.933 3.454v16.893l-2.933 4.07zm30.07 7.855-2.603 3.975h7.855l-2.555-3.975 12.871-23.944 4.874-8.328h-11.215l3.643 8.328-4.353 8.092-5.489-11.215 2.745-5.205h-14.906l12.587 25.789-3.454 6.483zm38.802-37.004v6.767c-2.319-1.514-4.874-2.319-7.477-2.319-6.435 0-10.363 4.827-10.315 12.445.047 7.713 4.117 12.824 10.079 12.824 2.744 0 5.442-1.089 7.713-3.076v2.508h11.593l-2.934-3.975V51.145l-11.356 2.413 2.697 3.928zm-3.407 24.89c-3.407 0-5.395-2.934-5.395-7.997 0-4.874 1.893-7.95 4.874-7.95 1.136 0 2.508.474 3.928 1.467v13.486c-1.136.663-2.271.994-3.407.994zm16.419-1.75c0 3.88 2.745 6.577 6.72 6.577 2.933 0 5.489-1.467 7.381-3.644v3.076h11.688l-2.981-4.022V64.537l.71-2.32H178.63l3.36 8.518 7.855-5.441h.142c1.656 0 2.366 1.514 2.366 2.98 0 2.935-2.934 3.928-6.104 5.017-3.739 1.277-7.761 2.65-7.761 7.334zm14.149.709c-.899.568-1.988.9-3.029.9-1.703 0-2.886-.947-2.886-2.745 0-2.13 1.561-3.123 3.123-4.117 1.136-.757 2.271-1.514 2.792-2.65v8.612zm20.404 13.155-2.603 3.975h7.855l-2.555-3.975 12.871-23.944 4.874-8.328h-11.215l3.644 8.328-4.354 8.092-5.489-11.215 2.745-5.205h-14.906l12.587 25.789-3.454 6.483z" fill="#fff"/>
</svg>
